<?xml version="1.0" encoding="UTF-8"?>
<svg id="Calque_3" data-name="Calque 3" xmlns="http://www.w3.org/2000/svg" viewBox="0 0 542.27 468.13">
  <defs>
    <style>
      .cls-1 {
        fill: #b66816;
      }

      .cls-1, .cls-2, .cls-3, .cls-4, .cls-5, .cls-6 {
        stroke: #1d1d1b;
        stroke-linejoin: round;
      }

      .cls-2 {
        fill: #0a4554;
      }

      .cls-3 {
        fill: #dc9a59;
      }

      .cls-4 {
        fill: #166b80;
      }

      .cls-5 {
        fill: none;
      }

      .cls-6 {
        fill: #fff;
      }
    </style>
  </defs>
  <path class="cls-1" d="M447.81,354.71c4.02,7.08,8.51,14.83,11.84,20.19l-16.15,6.73-13,11-16,36-18,9-.02-1.19-.98-73.81,12.68,2.82,14.32,3.18,25.31-13.92Z"/>
  <path class="cls-1" d="M496.5,340.63v13l-4.58,3.5-12.42,9.5-2.09.87-2.24.93c-2.29-2.09-4.75-4.4-7.16-6.69-4.71-4.48-9.23-8.9-11.94-11.57l9.8-5.39,5.81-3.2,3.86-2.12,2.09-1.15,4.87-2.68,14,5Z"/>
  <polygon class="cls-2" points="357.72 271.29 517.14 333.12 541.77 356.19 513.34 352.78 345.1 294.51 357.72 271.29"/>
  <path class="cls-1" d="M448.43,321.63c2.2-2,41.07,10,41.07,10l15-2,1-13-22-2-35.07-13-53.28,4,4.39,20,48.89-4Z"/>
  <path class="cls-4" d="M476.15,354.1l-3.76,3.53-4.38,4.11c-4.71-4.48-9.23-8.9-11.94-11.57-1.6-1.58-2.57-2.54-2.57-2.54l-5.9,1.78-8.86-13.36-8.24-12.42-13.17,10.43-19.5,15.45-12.02,9.52-.87-2.12-5.05-12.32-4.44-10.82-4.25-10.35,5.3-18.34,1-3.45,78.22-4.73,1.69,4.74,5.22,14.61,1.53,4.27.62,1.75,5.98,16.75.92,2.56,4.47,12.52Z"/>
  <path class="cls-2" d="M479.27,372.09c-1.08,2.07-6,10.42-14.77,9.54-.52-.05-2.36-2.72-4.85-6.73-3.33-5.36-7.82-13.11-11.84-20.19-.89-1.57-1.76-3.11-2.59-4.58l2.38-.72,5.9-1.78s.97.96,2.57,2.54c2.71,2.67,7.23,7.09,11.94,11.57,2.41,2.29,4.87,4.6,7.16,6.69,1.46,1.33,2.84,2.57,4.1,3.66Z"/>
  <path class="cls-2" d="M478.5,368.63s-.08.17-.23.46c-1.26-1.09-2.64-2.33-4.1-3.66-2.29-2.09-4.75-4.4-7.16-6.69-4.71-4.48-9.23-8.9-11.94-11.57-1.6-1.58-2.57-2.54-2.57-2.54l-5.9,1.78-2.38.72c-4.1-7.26-7.21-12.91-7.21-12.91l-28.13,5.38-12.05,6.91-12.89,7.4-8.44-9.28-1.05-13.86,1.09-3.49,5.63-17.93,14.51-1.77,11.47-1.4,37.35-4.55,5.11,10.06,2.35,4.65,1.59,3.13,8.01,15.79,3.31,6.52,6.52,12.85,5.02,9.87,2.09,4.13Z"/>
  <path class="cls-1" d="M100.5,207.63l-9.1-14s-10.9-11-19.55-10.87c-3.9.06-5.91,2.92-6.94,6.06-1.26,3.82-1.06,8.04-1.06,8.04v14.09c-.35,4.68,11.65,29.68,25.65,36.68,4,1,12,1,12,1l9-5v-8l4.82-8.24-14.82-19.76ZM76.05,211.72h0s-1.55,11.91-1.55,11.91c-1.35-.93-5-9-6-19,0-18,6.28-15.81,6.28-15.81l2.51,1.21-4.78,5.21s2.06,10.53,3.54,16.48ZM103.5,234.66s-9-1.03-10-4.03c-1.45-.36-3.29-.72-5.05-1.04v-21.11l2.55-4.01,6.5,8.16-2,12,8,7v3.03Z"/>
  <path class="cls-1" d="M220.33,242.71c.68-1.35,1.02-1.87,1.13-2.03l-1.13,2.03Z"/>
  <path class="cls-1" d="M300.5,185.63c-.32,2.27-1.37,4.69-2.64,6.93l.64-1.93-10-11h-25l2,5-5.05,4.33-1.95,1.67-3,8s.28,2.61.71,6.55c.08.75.17,1.55.26,2.39.38,3.52.85,7.74,1.32,11.99,1.08,9.62,2.22,19.41,2.64,21.71.03.17.05.29.07.36,1,4,1,11,1,15l-16.53,2c-5.54-5-16.47,0-16.47,0l8.23-39.07-3.73-17.38-8.47-11.55-11.03-9.87,13,.97,5-6.1-38-6-38,15,34-39,23.99,1.91h.01c2.11,3.52,3.71,5.62,3.71,5.62,0,0,1.06-1.54,2.79-4.03l54.5-1.5,10.85-6.9c2.68,5.39,7.3,9.38,12.56,11.94.98,7.63,3.39,27.35,2.59,32.96Z"/>
  <path class="cls-5" d="M256.47,207.57c-.09-.84-.18-1.64-.26-2.39.29.45.26,2.39.26,2.39Z"/>
  <polygon class="cls-5" points="224.53 215.62 223.96 214.32 219.59 204.47 219.71 204.13 224.53 215.62"/>
  <path class="cls-1" d="M261.6,309.21l-.1.19c-1.72,3.21-3.59,6.83-5.3,10.23-2.62,5.21-4.88,9.94-5.7,12-.58,1.46-1.5,3.42-3,5.48-3.64,4.99-10.75,10.52-25,10.52-.94-.21-1.91-.44-2.91-.7l-42.09-32.95,37.41-17.08c1.54,1.07,3.06,2.1,4.53,3.07,6.12,4.06,11.22,7.16,11.97,7.6.06.04.09.06.09.06l-8,4,13,4,14.87-3.48-.19-.22,10.42-2.72Z"/>
  <path class="cls-1" d="M283.5,206.63c-4.65,9.17-19.78.87-27,1l-.03-.06c.38,3.52.85,7.74,1.32,11.99l.06.06,23.15,21.01-16.5,33-17-9-21-1-9-3-1-11,3.78-6.83s.03-.06.05-.09l1.13-2.03s.02-.03.03-.04h.01s3.03-25.02,3.03-25.02l-.57-1.3-4.37-9.85.12-.34-.06-.14-.15-.34c-.02.05-.04.09-.07.13-.29.49-.95.78-1.47.94-.11.03-.21.06-.3.08-.11.03-.2.05-.27.06-.11.02-.18.03-.18.03,0,0-3.73-2.51-5.71-2.26-1.1.14-2.25.25-3.46.34-.91.06-1.85.1-2.83.12-1.88.04-3.88-.02-6.01-.23-.39-.03-.77-.07-1.17-.12-.12-.01-.24-.03-.36-.04l-1.32-.18c-.35-.05-.69-.1-1.05-.17-.37-.06-.75-.12-1.12-.19-4.38-.82-9.25-2.26-14.66-4.62-.63-.27-1.27-.56-1.91-.86l-15.2.9.22.41,16.87,31.64-29,57,30,7,34.41,3.27c-4.83-3.34-9.78-7-13.41-10.27,18-1,35.23-5.21,35.23-5.21l8.24,3.6,5.53-1.39s10,6,14,8c-1.39,2.17-4.66,5.72-7.78,8.92-.13.13-.26.26-.39.39l5.27,8.27c1.99-3.73,3.78-6.91,4.9-8.58,8-12,19-47,23-60,.96-16.25,2.04-37.56,2.13-39.42l-8.13,5.42Z"/>
  <path class="cls-3" d="M297.3,193.53c-2.56,4.22-5.66,7.55-5.66,7.55,0,0,0,.04-.01.13l-8.13,5.42c-.23-1.42-.57-2.64-1.01-3.66-1.75-4.09-5.06-5.25-8.76-4.92l-13.28-9.09,5.05-4.33,18,1.99,13.8,6.91Z"/>
  <path class="cls-2" d="M226.5,263.63h-12l-21-8,16-42,10-9.98h0s.15.34.15.34l.06.14,4.25,10.19.54,1.31-3.04,25.05c-.11.16-.45.68-1.13,2.03-.02.03-.03.06-.05.09-.52,1.06-1.24,2.6-2.2,4.83-2.58,6,1.42,13,1.42,13l7,3Z"/>
  <path class="cls-2" d="M244.97,258.63c-7.94,3-16.47,0-16.47,0,0,0,10.93-5,16.47,0Z"/>
  <path class="cls-6" d="M219.56,203.46c-.01.06-.03.12-.06.18-.02.05-.04.1-.07.14-.29.49-.95.78-1.47.94-.11.03-.21.06-.3.08-.11.03-.2.05-.27.06-.11.02-.18.03-.18.03,0,0-3.73-2.51-5.71-2.26-1.1.14-2.25.25-3.46.34-.91.06-1.85.1-2.83.12-1.88.04-3.88-.02-6.01-.23-.39-.03-.78-.07-1.17-.12-.12-.01-.24-.03-.36-.04l-1.32-.18c-.35-.05-.69-.1-1.05-.17-.37-.06-.75-.12-1.12-.19-4.38-.82-9.25-2.26-14.66-4.62-.63-.27-1.27-.56-1.91-.86-.04-.02-.07-.03-.11-.05,6.41-1.6,15.73-6.71,24-7.66-3,1.66-4.92,12.11,4,12.66s7.31-9.83,7.31-9.83c2.22,1.9,4.04,4.85,5.27,9.21,1.28,1.08,1.61,1.87,1.48,2.45Z"/>
  <path class="cls-4" d="M282.49,202.97c-.11,3.83-2.1,6.66-5.99,6.66-6,0-8-8-3.29-11.53.18-.02.35-.04.52-.05,3.7-.33,7.01.83,8.76,4.92Z"/>
  <path class="cls-6" d="M283.5,206.63c-4.65,9.17-19.78.87-27,1l-.03-.06c-.09-.84-.18-1.64-.26-2.39,2.41-1.5,10.54-6.31,17-7.08-4.71,3.53-2.71,11.53,3.29,11.53,3.89,0,5.88-2.83,5.99-6.66.44,1.02.78,2.24,1.01,3.66Z"/>
  <polygon class="cls-4" points="231.5 175.63 226.5 181.73 213.5 180.76 193.5 179.27 155.5 184.63 193.5 169.63 231.5 175.63"/>
  <path class="cls-4" d="M298.5,190.63l-.64,1.93c-.18.33-.37.66-.56.97l-13.8-6.91-18-1.99-2-5h25l10,11Z"/>
  <path class="cls-3" d="M267.5,291.63l-16,2-7,1-10-3-33-5c18-1,35.23-5.21,35.23-5.21l8.24,3.6,5.53-1.39s13,6,17,8Z"/>
  <path class="cls-3" d="M256.5,319.63h-32l-7-9,2-11,12,8h18s3.27-3.07,6.83-6.69l5.27,8.27-5.1,10.42Z"/>
  <path class="cls-2" d="M267.5,291.63c-1.39,2.17-7.66,5.72-10.78,8.92-.13.13-.26.26-.39.39-3.56,3.62-6.83,6.69-6.83,6.69h-18s-8.12-4.87-16.59-10.73c-4.83-3.34-9.78-7-13.41-10.27l33,5,10,3,7-1,16-2Z"/>
  <path class="cls-1" d="M211.44,349.7l-17.23,50.83h0s-15.7,16.07-15.7,16.07l6.07-62.5.08-.79.08-.83.12-1.24.08-.77.04-.4.11-1.1v-.02c.02-.25.05-.49.07-.72l.07-.72c.04-.47.09-.91.13-1.33v-.03c.02-.22.04-.42.06-.62.04-.43.08-.83.12-1.2l.07-.7.06-.61.05-.5.06-.65h0l25.65,7.83Z"/>
  <path class="cls-5" d="M184.58,354.1l-6.07,62.5-.09.09c.1-1.02.2-2.1.31-3.25.02-.29.05-.58.08-.87.23-2.35.48-4.93.74-7.68.03-.34.07-.69.1-1.04.14-1.42.28-2.89.43-4.39.07-.67.13-1.35.2-2.03,0-.05,0-.1,0-.15.08-.73.15-1.47.22-2.21.08-.79.16-1.59.24-2.4.06-.6.12-1.2.17-1.81.01-.11.03-.22.04-.34.03-.39.07-.78.11-1.16.02-.21.04-.42.06-.63.11-1.12.23-2.25.34-3.38.08-.82.16-1.64.24-2.46.2-2.02.4-4.04.6-6.03.08-.84.16-1.68.25-2.51.08-.8.15-1.6.23-2.39.08-.79.16-1.58.24-2.36.08-.78.15-1.55.23-2.31.21-2.12.41-4.17.61-6.13.03-.34.06-.67.1-1,.21-2.16.42-4.19.61-6.06Z"/>
  <line class="cls-5" x1="89.5" y1="247.63" x2="89.5" y2="247.13"/>
  <line class="cls-5" x1="88.45" y1="208.48" x2="86.88" y2="210.95"/>
  <path class="cls-5" d="M82.5,228.63s2.85.41,5.95.96"/>
  <polyline class="cls-5" points="77.29 190.03 84.74 193.63 88.45 197.99"/>
  <line class="cls-5" x1="77.5" y1="200.63" x2="76.05" y2="211.72"/>
  <polygon class="cls-2" points="89.28 281.1 89.2 294.52 79.13 308.17 57.42 337.6 54.47 341.6 38.76 323.18 74.33 286.32 88.13 281.5 89.28 281.1"/>
  <polygon class="cls-4" points="168.22 421.63 131.5 437.46 23.5 421.63 .5 372.63 7.5 325.63 20.5 318.63 29.08 311.82 50.87 294.52 74.33 286.32 38.76 323.18 54.47 341.6 54.47 371.85 168.22 421.63"/>
  <path class="cls-3" d="M270,359.44s-1.26,9.77-2.68,20.96c-10.17,2.33-32.05,7.39-32.82,7.93-.78.55-30.5,20.12-43.71,29.01-6.04.15-10.54.24-12.38.28-.03-.01-.05-.01-.08,0-.54,0-.83.01-.83.01l.92-.94.09-.09,15.7-16.06h0s21.87-22.38,21.87-22.38l53.51-19.13.41.41Z"/>
  <path class="cls-4" d="M267.32,380.4c-.06.46-.11.92-.17,1.38-1.75,13.85-3.65,29.31-3.65,31.04,0,2.31-44.96,3.79-69.87,4.44-.98.03-1.93.05-2.84.08,13.21-8.89,42.93-28.46,43.71-29.01.77-.54,22.65-5.6,32.82-7.93Z"/>
  <path class="cls-2" d="M269.59,359.03l-53.51,19.13-21.87,22.37,17.23-50.83,1.58-4.64c2.31.72,4.51,1.34,6.57,1.87,1,.26,1.97.49,2.91.7,14.25,0,21.36-5.53,25-10.52l22.09,21.92Z"/>
  <path class="cls-4" d="M261.5,256.63c0,3-14,8-14,8l-21-1-7-3s-4-7-1.42-13c.96-2.23,1.68-3.77,2.2-4.83.02-.03.03-.06.05-.09l1.13-2.03s.02-.03.03-.04h.01s3.03-25.02,3.03-25.02l-4.82-11.49,4.82-13.5,8.47,11.55,3.73,17.38-8.23,39.07s8.53,3,16.47,0l16.53-2Z"/>
  <path class="cls-3" d="M281,240.63l-16.5,33-17-9s14-5,14-8c0-4,0-11-1-15-.02-.07-.04-.19-.07-.36-.35-2.15-1.52-12.29-2.58-21.65-.51-4.5-.99-8.82-1.35-11.99l24.5,33Z"/>
  <line class="cls-5" x1="285.5" y1="140.63" x2="285.35" y2="140.73"/>
  <path class="cls-4" d="M285.35,140.73l-10.85,6.9-54.5,1.5c5.82-8.39,19.21-27.55,24.97-34.47,5.53,7.97,14.53,30.97,14.53,30.97,0,0,7-.52,24-21.48-1.28,6.51-.4,12.04,1.85,16.58Z"/>
  <path class="cls-2" d="M333.5,103.63c5,7-9,22-9,22,0,0-10.73,30,2.63,24-4.4,7.46-18.2,8.4-29.22,3.04-5.26-2.56-9.88-6.55-12.56-11.94-2.25-4.54-3.13-10.07-1.85-16.58-17,20.96-24,21.48-24,21.48,0,0-9-23-14.53-30.97-5.76,6.92-19.15,26.08-24.97,34.47-1.73,2.49-2.79,4.03-2.79,4.03,0,0-1.6-2.1-3.71-5.62h-.01c-5.11-8.51-13.24-25.34-8.99-40.91-17,16-15,25-16,33.7-16-12.4-13-8.59-11-20.65-8,23.9-17,19.95-17,19.95,0,0,6-17-1-17-6,6-13,27-4,36-3.93,1.82-7.54,2.13-10.57,1.76-5.74-.67-9.43-3.76-9.43-3.76-3,9-24.24,20.5-24.24,20.5,0,0-7.76-30.5-11.76-38.5-10,1-10,20-10,20,0,0-14-12.37-7-30.63-9,4.38-17,30.63-17,30.63l-11-9s-12,5-7,10c-12-8-7-36,8-53,5-10,27-46,27-46.09,5-9.82-7-7.91-8-2.91-3-10,12-13.42,18.5-12.71,11.5-2.29,38.5-10.29,38.5-10.04,5-8.5,10-11.25,10-11.25,0,0-8.87-3-12.43,0,1.86-10,13.43-9,17.43-10,2-9,11-14,15-13-7,6,0,18.63,0,18.63l30-8.63c15,8,25.71,16.44,25.71,16.44,0,0,11.29-2.44,19.52-5.58,4.6-1.76-3.23-10.17-8.23-16.86,19-5,23,15,23,15,0,0,16,1.4,18.5-9.3,5,7.6,3.5,15.3,3.5,15.3,0,0,22,1.75,25,3,6,6,15,16,15,16,0,0,3.53-9.25,1.68-11.87,9.22,4.87,8.32,25.87,8.32,25.87,0,0,9,10,15,2,6,14,5,41-5,43Z"/>
  <path class="cls-4" d="M131.5,179.63c-7,5-16,48-16,48l-15-20-9.1-14s-10.9-11-19.55-10.87c-3.9.06-5.91,2.92-6.94,6.06l-10.41-39.19,11,9s8-26.25,17-30.63c-7,18.26,7,30.63,7,30.63,0,0,0-19,10-20,4,8,11.76,38.5,11.76,38.5,0,0,21.24-11.5,24.24-20.5,0,0,3,18-4,23Z"/>
  <path class="cls-5" d="M313.5,32.09c.8-.09,1.34.17,1.68.67-.53-.28-1.09-.5-1.68-.67Z"/>
  <path class="cls-4" d="M185.78,341.87l-.06.65-.05.5-.06.61-.07.7c-.04.37-.08.77-.12,1.2-.02.2-.04.4-.06.62v.03c-.04.42-.09.86-.13,1.33l-.07.72c-.02.23-.05.47-.07.72v.02l-.11,1.1-.04.4-.08.77-.12,1.24-.08.83-.08.79c-.19,1.87-.4,3.9-.61,6.06-.04.33-.07.66-.1,1-.2,1.96-.4,4.01-.61,6.13-.08.76-.15,1.53-.23,2.31-.08.78-.16,1.57-.24,2.36-.08.79-.15,1.59-.23,2.39-.09.83-.17,1.67-.25,2.51-.2,1.99-.4,4.01-.6,6.03-.08.82-.16,1.64-.24,2.46-.11,1.13-.23,2.26-.34,3.38-.02.21-.04.42-.06.63-.04.38-.08.77-.11,1.16-.01.12-.03.23-.04.34-.05.61-.11,1.21-.17,1.81-.08.81-.16,1.61-.24,2.4-.07.74-.14,1.48-.22,2.21,0,.05,0,.1,0,.15-.07.68-.13,1.36-.2,2.03-.15,1.5-.29,2.97-.43,4.39-.03.35-.07.7-.1,1.04-.26,2.75-.51,5.33-.74,7.68-.03.29-.06.58-.08.87-.11,1.15-.21,2.23-.31,3.25l-.92.94-68.58-42.38-54.42-33.62-.03-.03,2.95-4,21.71-29.43,10.07-13.65.08-13.42.02-2.47v-1.01s15.47,39.07,15.47,39.07l16.35,5.43,64.66,19.75Z"/>
  <path class="cls-2" d="M213.02,345.06l-1.58,4.64-25.65-7.83h0l-64.66-19.75-16.35-5.43-15.46-39.07.19-29.99c4,1,12,1,12,1l9-5v-8l4.82-8.24.18.24s9-43,16-48,4-23,4-23c0,0,3.69,3.09,9.43,3.76l-16.47,80.24-21.96,24,18,29,12,10c7.15,3.57,47.66,32.54,76.52,41.43Z"/>
  <path class="cls-2" d="M103.5,231.63v3.03s-9-1.03-10-4.03c-1.45-.36-3.29-.72-5.05-1.04v-21.11l2.55-4.01,6.5,8.16-2,12,8,7Z"/>
  <path class="cls-2" d="M72.51,195.24s2.06,10.53,3.54,16.48h0s-1.55,11.91-1.55,11.91c-1.35-.93-5-9-6-19,0-18,6.28-15.81,6.28-15.81l2.51,1.21-4.78,5.21Z"/>
  <path class="cls-4" d="M219.59,346.93c-2.06-.53-4.26-1.15-6.57-1.87-28.86-8.89-69.37-37.86-76.52-41.43l-12-10-18-29,21.96-24,16.47-80.24c3.03.37,6.64.06,10.57-1.76-9-9-2-30,4-36,7,0,1,17,1,17,0,0,9,3.95,17-19.95-2,12.06-5,8.25,11,20.65,1-8.7-1-17.7,16-33.7-4.25,15.57,3.88,32.4,8.99,40.91l-23.99-1.91-34,39,6.91,12.95.22.41,16.87,31.64-29,57h51l13.41,10.27-37.41,17.08,42.09,32.95Z"/>
  <line class="cls-5" x1="211.8" y1="349.81" x2="211.44" y2="349.7"/>
  <path class="cls-2" d="M219.56,203.46c.13-.58-.2-1.37-1.48-2.45-1.23-4.36-3.05-7.31-5.27-9.21-3.14-2.71-7.09-3.31-11.31-2.83-8.27.95-17.59,6.06-24,7.66.04.02.07.03.11.05l-15.2.9-6.91-12.95,38-5.36,20,1.49,11.03,9.87-4.97,12.83Z"/>
  <line class="cls-5" x1="178.5" y1="196.63" x2="177.61" y2="196.68"/>
  <path class="cls-4" d="M205.5,201.63c-8.92-.55-7-11-4-12.66,4.22-.48,8.17.12,11.31,2.83,0,0,1.61,10.38-7.31,9.83Z"/>
  <path class="cls-2" d="M273.73,198.05c-.17.01-.34.03-.52.05-6.46.77-14.59,5.58-17,7.08-.43-3.94-.71-6.55-.71-6.55l3-8,1.95-1.67,13.28,9.09Z"/>
  <polygon class="cls-3" points="177.5 417.63 170.82 420.51 168.22 421.63 38.5 378.63 38.5 323.63 54.5 341.63 108.92 375.25 177.5 417.63"/>
  <path class="cls-4" d="M496.5,363.63c-2,5-8.37,12.76-11,13-.67.06-3.05-1.77-6.23-4.54-1.26-1.09-2.64-2.33-4.1-3.66-2.29-2.09-4.75-4.4-7.16-6.69-4.71-4.48-9.23-8.9-11.94-11.57-1.6-1.58-2.57-2.54-2.57-2.54l-5.9,1.78-2.38.72-34.72,10.5-2.32,4.82-11.03,22.88-.67,48.11v1.02s-43.98,30.17-43.98,30.17l-38.16-54.13,35.14-28.11,6.21-8.33,13.72-47.44,1.79-6.2,4.25,10.35.05,10.86,14.14-13.13,5.86-7.87,4.02-.08,1.3-.02,53.73-1.06,10.23-.2h.47s5.79,7.45,12.38,16.04c.37.48.74.96,1.1,1.45,4.73,6.15,9.72,12.7,13.19,17.37,2.82,3.77,4.65,6.33,4.58,6.5Z"/>
</svg>