<?xml version="1.0" encoding="utf-8"?>
<!-- Generator: Adobe Illustrator 21.1.0, SVG Export Plug-In . SVG Version: 6.00 Build 0)  -->
<svg version="1.1" id="Layer_1" xmlns="http://www.w3.org/2000/svg" xmlns:xlink="http://www.w3.org/1999/xlink" x="0px" y="0px"
	 viewBox="0 0 168 168" style="enable-background:new 0 0 168 168;" xml:space="preserve">
<title>114 Web Icon Set  60 expanded</title>
<path d="M34.8,94.5c0.1,0,0.3,0.1,0.4,0.1l0.4,0.1c0.6,0.2,1.2,0.4,1.8,0.8c-0.1,0.9-0.4,1.8-0.9,2.6c-0.9,2.1-2.3,5.2,0.3,7.2
	c0.4,0.3,0.9,0.5,1.4,0.6c-0.4,0.5-0.6,1.2-0.6,1.9c0.1,2.3,2.5,2.8,3.5,3l0,0c0,0.6-0.1,1.6-0.2,2.4c-0.3,2.3-0.7,5.1,0.1,7.7
	c0.5,1.7,1.6,3.1,3,4.1c1.8,1.3,4,1.8,6.1,1.6c7.9-0.8,15.6-3.3,22.6-7.3c0.4,6.9-0.5,12.1-5,17.3c-0.7,0.8-0.6,2.1,0.2,2.8
	c0.4,0.3,0.8,0.5,1.3,0.5h46c1.1,0,2-0.9,2-2c0-0.7-0.3-1.3-0.9-1.7c-3-2-5-5.1-5.5-8.6c-1.7-9.4,3.8-23.4,9.9-32.1
	c-2.4,0.8-4.7,2.1-6.6,3.8c-0.2,0.2-0.5,0.4-0.8,0.6c-4.4,8.3-8.2,19.4-6.5,28.4c0.5,2.7,1.6,5.3,3.3,7.6H73.1
	c3.7-6,4-12.3,3.2-20.2c-0.1-1.1-1.1-1.9-2.2-1.8c-0.4,0-0.7,0.2-1,0.4c0,0,0,0,0,0c-0.1,0-0.4,0.2-0.7,0.4l-0.4,0.2
	c-6.8,4.1-14.4,6.7-22.3,7.6c-1.2,0.1-2.4-0.2-3.4-0.8c-0.7-0.5-1.2-1.2-1.5-2c-0.4-2-0.4-4.1,0-6.1c0.3-2.1,0.5-3.7-0.1-5
	c-0.4-0.9-1.2-1.5-2.2-1.6c1-0.7,1.5-1.9,1.3-3.1c-0.4-1.8-2.3-1.8-3.5-1.9c-0.3,0-0.7,0-1,0c0.2-0.8,0.5-1.5,0.9-2.3
	c1-2.1,2.3-5,0-7.1c-0.9-0.8-2-1.4-3.2-1.7l-0.4-0.1c-0.2-0.1-0.3-0.1-0.5-0.2c-0.4-0.1-0.7-0.2-1-0.5c0-0.1,0-0.2,0-0.2
	c0.7-1.5,1.7-2.9,2.8-4.2c1.3-1.5,2.4-3.1,3.4-4.8c0.2-0.4,0.4-0.7,0.6-1.1c1.8-3,3.8-6.4,3.1-10c-1.1-5.2-0.5-10.5,1.8-15.3
	c7.8-16.8,23.1-21,29.4-22c2.8-0.5,5.7-0.7,8.5-0.7c5.3-0.1,10.6,0.7,15.6,2.3c1,0.3,2,0.7,3,1.1c2.1,0.9,4.1,1.9,6,3.2
	c1.2-0.8,2.5-1.6,3.8-2.2c-2.6-1.9-5.4-3.5-8.4-4.7c-1.1-0.4-2.2-0.9-3.3-1.2C96.1,28.8,90.4,28,84.7,28h-0.1
	c-3.1,0-6.1,0.3-9.1,0.7c-6.9,1.1-23.8,5.7-32.4,24.3c-2.6,5.5-3.3,11.7-2.1,17.7c0.4,2.1-1.1,4.7-2.6,7.2c-0.2,0.4-0.5,0.8-0.7,1.2
	c-0.9,1.5-1.9,2.9-3,4.2c-1.4,1.5-2.5,3.3-3.4,5.1c-0.6,1.3-0.4,2.7,0.3,3.9C32.4,93.5,33.5,94.2,34.8,94.5z"/>
<path d="M110,43.1c-10.9-8.4-26.2-8.1-36.8,0.6c-0.7,0.6-1.2,1.6-1.2,2.5v46c0,1.8,1.5,3.3,3.3,3.3c0.7,0,1.4-0.2,1.9-0.6
	c9.6-6.7,22.5-6.1,31.4,1.5l0,0c0,0,0,0,0.1,0c0.1,0.1,0.3,0.2,0.4,0.3c0,0,0,0,0.1,0c0,0,0,0,0,0c0.1,0,0.2,0.1,0.3,0.1
	c0,0,0.1,0,0.1,0c0.3,0.1,0.5,0.1,0.8,0c0,0,0.1,0,0.1,0c0.1,0,0.2-0.1,0.3-0.1c0,0,0,0,0,0c0,0,0,0,0.1,0c0.1-0.1,0.3-0.2,0.4-0.3
	c0,0,0,0,0.1,0l0,0c8.9-7.6,21.8-8.3,31.4-1.5c1.5,1.1,3.6,0.7,4.6-0.8c0.4-0.6,0.6-1.2,0.6-1.9v-46c0-1-0.4-1.9-1.2-2.5
	C136.2,35,120.9,34.7,110,43.1z M76,91V46.6c9-7.4,23.1-7.4,32,0V91C98.2,84.8,85.8,84.8,76,91L76,91z M144,91
	c-9.8-6.2-22.2-6.2-32,0V46.6c8.9-7.4,23-7.4,32,0V91z"/>
<path d="M22,112.2c0.2,0,0.3,0,0.5-0.1l4.1-1.1c1.1-0.3,1.7-1.4,1.4-2.4c-0.3-1.1-1.4-1.7-2.4-1.4c0,0,0,0,0,0l-4.1,1.1
	c-1.1,0.3-1.7,1.4-1.4,2.4C20.3,111.6,21.1,112.2,22,112.2z"/>
<path d="M28.9,121.7c0.9,0.6,2.2,0.3,2.7-0.7l2.1-3.5c0.6-0.9,0.3-2.2-0.7-2.7s-2.2-0.3-2.7,0.7l0,0l-2.1,3.5
	C27.6,119.9,27.9,121.1,28.9,121.7z"/>
<path d="M22.6,99.8l3.7,2c1,0.5,2.2,0.2,2.7-0.8c0.5-1,0.2-2.2-0.8-2.7l0,0l-3.7-2c-1-0.5-2.2-0.2-2.7,0.8
	C21.2,98,21.6,99.2,22.6,99.8z"/>
<path d="M93.8,56.2c0,0,0-0.1-0.1-0.1c0-0.1-0.1-0.1-0.1-0.2c0-0.1-0.1-0.1-0.1-0.1c0-0.1-0.1-0.1-0.1-0.2c0,0-0.1-0.1-0.1-0.1
	c0,0-0.1-0.1-0.2-0.1c-0.1,0-0.1-0.1-0.2-0.1c0,0-0.1,0-0.1-0.1c0,0,0,0,0,0c-0.1,0-0.1-0.1-0.2-0.1c-0.1,0-0.1,0-0.2,0
	c-0.1,0-0.1,0-0.2,0c-0.1,0-0.1,0-0.2,0c-0.1,0-0.1,0-0.2,0c-0.1,0-0.1,0-0.2,0c-0.1,0-0.1,0-0.2,0c-0.1,0-0.1,0-0.2,0.1
	c0,0,0,0,0,0c0,0-0.1,0-0.1,0.1c-0.1,0-0.1,0.1-0.2,0.1c-0.1,0-0.1,0.1-0.1,0.1c-0.1,0.1-0.2,0.2-0.3,0.3c0,0-0.1,0.1-0.1,0.2
	c0,0.1-0.1,0.1-0.1,0.2c0,0,0,0.1-0.1,0.1l-7.1,16c-0.5,1,0,2.2,1,2.6c1,0.5,2.2,0,2.6-1c0,0,0,0,0,0l1.7-3.8h7.2l1.7,3.8
	c0.4,1,1.6,1.5,2.6,1s1.5-1.6,1-2.6c0,0,0,0,0,0L93.8,56.2z M90.2,66l1.8-4.1l1.8,4.1H90.2z"/>
<path d="M134.8,56.2c-0.1,0-0.1,0-0.2-0.1c-0.1,0-0.1,0-0.2-0.1c-0.1,0-0.3,0-0.4,0h-12c-1.1,0-2,0.9-2,2s0.9,2,2,2h7.2l-8.6,8.6
	c-0.1,0.1-0.2,0.2-0.3,0.3c0,0-0.1,0.1-0.1,0.2c-0.1,0.1-0.1,0.3-0.2,0.4c0,0.1,0,0.1-0.1,0.2c-0.1,0.3-0.1,0.5,0,0.8
	c0,0.1,0,0.1,0.1,0.2c0,0.1,0.1,0.3,0.2,0.4c0,0.1,0.1,0.1,0.1,0.2c0.1,0.2,0.3,0.4,0.6,0.6c0,0,0.1,0.1,0.1,0.1
	c0.1,0.1,0.3,0.1,0.4,0.2c0.1,0,0.1,0,0.2,0.1c0.1,0,0.3,0,0.4,0h12c1.1,0,2-0.9,2-2s-0.9-2-2-2h-7.2l8.6-8.6
	c0.1-0.1,0.2-0.2,0.3-0.3c0,0,0.1-0.1,0.1-0.2c0.1-0.1,0.1-0.3,0.2-0.4c0-0.1,0-0.1,0.1-0.2c0.1-0.3,0.1-0.5,0-0.8
	c0-0.1,0-0.1-0.1-0.2c0-0.1-0.1-0.3-0.2-0.4c0-0.1-0.1-0.1-0.1-0.2c-0.1-0.2-0.3-0.4-0.6-0.6c0,0-0.1-0.1-0.1-0.1
	C134.9,56.2,134.8,56.2,134.8,56.2z"/>
</svg>
