<?xml version="1.0" encoding="utf-8"?>
<!-- Generator: Adobe Illustrator 19.2.1, SVG Export Plug-In . SVG Version: 6.00 Build 0)  -->
<svg version="1.1" id="Glyph" xmlns="http://www.w3.org/2000/svg" xmlns:xlink="http://www.w3.org/1999/xlink" x="0px" y="0px"
	 viewBox="0 0 32 32" enable-background="new 0 0 32 32" xml:space="preserve">
<path id="XMLID_1138_" d="M22.862,20.454l5.796,1.932C28.862,22.454,29,22.645,29,22.86V25c0,2.209-1.791,4-4,4h0
	C12.847,29,2.996,19.146,3,6.993v0C3.001,4.788,4.789,3,6.994,3H9.14c0.215,0,0.406,0.138,0.474,0.342l1.932,5.796
	c0.071,0.214-0.009,0.449-0.197,0.574l-2.597,1.731c-0.196,0.131-0.28,0.381-0.196,0.601c1.918,4.983,6.417,9.482,11.4,11.4
	c0.22,0.085,0.47,0,0.601-0.196l1.731-2.597C22.413,20.463,22.648,20.383,22.862,20.454z"/>
</svg>
