<?xml version="1.0" encoding="UTF-8"?>
<svg id="Layer_1" xmlns="http://www.w3.org/2000/svg" version="1.1" viewBox="0 0 168 168">
  <!-- Generator: Adobe Illustrator 29.5.1, SVG Export Plug-In . SVG Version: 2.1.0 Build 141)  -->
  <defs>
    <style>
      .st0 {
        fill: #e4b203;
      }
    </style>
  </defs>
  <path class="st0" d="M34.8,94.5c0,0,.3,0,.4,0h.4c.6.3,1.2.5,1.8.9,0,.9-.4,1.8-.9,2.6-.9,2.1-2.3,5.2.3,7.2.4.3.9.5,1.4.6-.4.5-.6,1.2-.6,1.9,0,2.3,2.5,2.8,3.5,3h0c0,.6,0,1.6-.2,2.4-.3,2.3-.7,5.1,0,7.7.5,1.7,1.6,3.1,3,4.1,1.8,1.3,4,1.8,6.1,1.6,7.9-.8,15.6-3.3,22.6-7.3.4,6.9-.5,12.1-5,17.3-.7.8-.6,2.1.2,2.8.4.3.8.5,1.3.5h46c1.1,0,2-.9,2-2s-.3-1.3-.9-1.7c-3-2-5-5.1-5.5-8.6-1.7-9.4,3.8-23.4,9.9-32.1-2.4.8-4.7,2.1-6.6,3.8-.2.2-.5.4-.8.6-4.4,8.3-8.2,19.4-6.5,28.4.5,2.7,1.6,5.3,3.3,7.6h-37c3.7-6,4-12.3,3.2-20.2,0-1.1-1.1-1.9-2.2-1.8-.4,0-.7.2-1,.4h0c0,0-.4.2-.7.4l-.4.2c-6.8,4.1-14.4,6.7-22.3,7.6-1.2,0-2.4-.2-3.4-.8-.7-.5-1.2-1.2-1.5-2-.4-2-.4-4.1,0-6.1.3-2.1.5-3.7,0-5-.4-.9-1.2-1.5-2.2-1.6,1-.7,1.5-1.9,1.3-3.1-.4-1.8-2.3-1.8-3.5-1.9h-1c.2-.8.5-1.5.9-2.3,1-2.1,2.3-5,0-7.1-.9-.8-2-1.4-3.2-1.7h-.4c-.2-.2-.3-.2-.5-.3-.4,0-.7-.2-1-.5v-.2c.7-1.5,1.7-2.9,2.8-4.2,1.3-1.5,2.4-3.1,3.4-4.8.2-.4.4-.7.6-1.1,1.8-3,3.8-6.4,3.1-10-1.1-5.2-.5-10.5,1.8-15.3,7.8-16.8,23.1-21,29.4-22,2.8-.5,5.7-.7,8.5-.7,5.3-.1,10.6.7,15.6,2.3,1,.3,2,.7,3,1.1,2.1.9,4.1,1.9,6,3.2,1.2-.8,2.5-1.6,3.8-2.2-2.6-1.9-5.4-3.5-8.4-4.7-1.1-.4-2.2-.9-3.3-1.2-5.3-1.5-11-2.3-16.7-2.3h0c-3.1,0-6.1.3-9.1.7-6.9,1.1-23.8,5.7-32.4,24.3-2.6,5.5-3.3,11.7-2.1,17.7.4,2.1-1.1,4.7-2.6,7.2-.2.4-.5.8-.7,1.2-.9,1.5-1.9,2.9-3,4.2-1.4,1.5-2.5,3.3-3.4,5.1-.6,1.3-.4,2.7.3,3.9.8,1.2,1.9,1.9,3.2,2.2Z"/>
  <path class="st0" d="M110,43.1c-10.9-8.4-26.2-8.1-36.8.6-.7.6-1.2,1.6-1.2,2.5v46c0,1.8,1.5,3.3,3.3,3.3s1.4-.2,1.9-.6c9.6-6.7,22.5-6.1,31.4,1.5h0c0,0,.3.2.4.3h0c0,0,.2,0,.3,0h0c.3,0,.5,0,.8,0h0c0,0,.2,0,.3,0h0c0,0,.3-.2.4-.3h0c8.9-7.6,21.8-8.3,31.4-1.5,1.5,1.1,3.6.7,4.6-.8.4-.6.6-1.2.6-1.9v-46c0-1-.4-1.9-1.2-2.5-10.6-8.7-25.9-9-36.8-.6ZM76,91v-44.4c9-7.4,23.1-7.4,32,0v44.4c-9.8-6.2-22.2-6.2-32,0h0ZM144,91c-9.8-6.2-22.2-6.2-32,0v-44.4c8.9-7.4,23-7.4,32,0v44.4Z"/>
  <path class="st0" d="M22,112.2c.2,0,.3,0,.5,0l4.1-1.1c1.1-.3,1.7-1.4,1.4-2.4-.3-1.1-1.4-1.7-2.4-1.4h0l-4.1,1.1c-1.1.3-1.7,1.4-1.4,2.4.2.9,1,1.5,1.9,1.5Z"/>
  <path class="st0" d="M28.9,121.7c.9.6,2.2.3,2.7-.7l2.1-3.5c.6-.9.3-2.2-.7-2.7s-2.2-.3-2.7.7h0l-2.1,3.5c-.6.9-.3,2.1.7,2.7Z"/>
  <path class="st0" d="M22.6,99.8l3.7,2c1,.5,2.2.2,2.7-.8s.2-2.2-.8-2.7h0l-3.7-2c-1-.5-2.2-.2-2.7.8-.6.9-.2,2.1.8,2.7Z"/>
  <path class="st0" d="M93.8,56.2s0,0,0,0c0,0,0,0,0-.2s0,0,0,0c0,0,0,0,0-.2h0c0,0,0-.2-.2-.2s0,0-.2,0c0,0,0,0,0,0h0c0,0,0,0-.2,0h-1.2q0,0-.2,0h0s0,0,0,0c0,0,0,0-.2,0s0,0,0,0c0,0-.2.2-.3.3,0,0,0,0,0,.2s0,0,0,.2c0,0,0,0,0,0l-7.1,16c-.5,1,0,2.2,1,2.6,1,.5,2.2,0,2.6-1h0l1.7-3.8h7.2l1.7,3.8c.4,1,1.6,1.5,2.6,1s1.5-1.6,1-2.6h0l-7.1-16.1ZM90.2,66l1.8-4.1,1.8,4.1h-3.6Z"/>
  <path class="st0" d="M134.8,56.2q-.1,0-.2,0t-.2,0h-12.4c-1.1,0-2,.9-2,2s.9,2,2,2h7.2l-8.6,8.6-.3.3s0,0,0,.2c0,0,0,.3-.2.4q0,0,0,.2c0,.3,0,.5,0,.8q0,0,0,.2c0,0,0,.3.2.4,0,0,0,0,0,.2,0,.2.3.4.6.6h0c0,.2.3.2.4.3q0,0,.2,0h12.4c1.1,0,2-.9,2-2s-.9-2-2-2h-7.2l8.6-8.6c.1,0,.2-.2.3-.3,0,0,.1,0,.1-.2.1,0,.1-.3.2-.4q0,0,.1-.2c.1-.3.1-.5,0-.8q0,0-.1-.2c0,0-.1-.3-.2-.4,0,0-.1,0-.1-.2-.1-.2-.3-.4-.6-.6h-.1c-.1-.2-.2-.2-.2-.2Z"/>
</svg>