<svg xmlns="http://www.w3.org/2000/svg" viewBox="0 0 40 40"><defs><style>.cls-1{fill:#040505;}</style></defs><g id="Layer_2" data-name="Layer 2"><g id="Layer_1-2" data-name="Layer 1"><path class="cls-1" d="M20,30.77A10.77,10.77,0,1,1,30.77,20,10.78,10.78,0,0,1,20,30.77Zm0-18.46A7.69,7.69,0,1,0,27.69,20,7.7,7.7,0,0,0,20,12.31Z"/><path class="cls-1" d="M29.23,40H10.77A10.78,10.78,0,0,1,0,29.23V10.77A10.78,10.78,0,0,1,10.77,0H29.23A10.78,10.78,0,0,1,40,10.77V29.23A10.78,10.78,0,0,1,29.23,40ZM10.77,3.08a7.7,7.7,0,0,0-7.69,7.69V29.23a7.7,7.7,0,0,0,7.69,7.69H29.23a7.7,7.7,0,0,0,7.69-7.69V10.77a7.7,7.7,0,0,0-7.69-7.69Z"/></g></g></svg>