<?xml version="1.0" encoding="UTF-8"?>
<svg id="Calque_1" data-name="Calque 1" xmlns="http://www.w3.org/2000/svg" viewBox="0 0 140.48 149.53">
  <defs>
    <style>
      .cls-1 {
        fill: #fff;
      }

      .cls-1, .cls-2 {
        fill-rule: evenodd;
      }

      .cls-2 {
        fill: #c4883a;
      }
    </style>
  </defs>
  <path class="cls-2" d="M73.19,8.25c-2.05.77-4.54.65-6.24,1.44v.96l.24.24c4.21-.19,9.36-1.53,14.4-.72,3.68.64,7.36,1.28,11.04,1.92l.48-.48v-.72l-.48-.48c-5.82-1.36-11.9-2.14-19.44-2.16Z"/>
  <path class="cls-2" d="M60.95,11.13l-.96.48c.25,1.3.07,1.04,1.44,1.2l.48-.72-.24-.72-.72-.24Z"/>
  <path class="cls-2" d="M99.11,11.85l-.72.72.48.96c6.68,1.61,14.05,6.15,18.24,10.56,1.33,1.4,3.64,5.07,5.52,3.6-3.12-5.82-15.77-14.93-23.52-15.84Z"/>
  <path class="cls-2" d="M76.31,12.33c-2.16.32-4.32.64-6.48.96-6.78,1.68-15.13,3.46-20.64,6.72l.24,1.2c9.89-.61,18.63-9.12,31.2-6.96,3.92.4,7.84.8,11.76,1.2,3.55.87,11.61,5.22,14.4,4.56v-.72c-7.28-4.78-18.62-6.91-30.48-6.96Z"/>
  <path class="cls-2" d="M51.59,14.01c-3.52,1.52-7.04,3.04-10.56,4.56-10.4,6.31-19.34,15.68-25.68,26.16-1.2,1.99-6.33,14.66-4.08,17.04,2.41-1.92,2.1-7.78,3.12-11.04,1.77-5.7,5.78-10.52,9.12-14.88,3.81-4.97,12.79-12.31,18.24-15.6,3.92-1.76,7.84-3.52,11.76-5.28l-.24-.96h-1.68Z"/>
  <path class="cls-2" d="M88.79,17.61c-1.16.68-1.92.79-2.64,1.92l.48.72c1.6-.4,3.2-.8,4.8-1.2v-.96l-.72-.24c-.64-.08-1.28-.16-1.92-.24Z"/>
  <path class="cls-2" d="M95.75,21.21c-4,.72-8,1.44-12,2.16-8.55,2.6-13.89,6.93-19.92,11.76-2.58,2.07-7.85,6.94-6.96,11.28l1.44-.48c4.54-13.95,20.43-20.11,36.48-22.8,4.08-.68,7.54.95,10.8.48v-1.2l-.48-.24c-2.78-.64-5.65-.97-9.36-.96Z"/>
  <path class="cls-2" d="M67.19,21.93l-.72.72.48.96c1.59.5,2.26,1.23,3.6.72v-.72c-1.11-.84-1.52-1.45-3.36-1.68Z"/>
  <path class="cls-2" d="M110.39,21.93v1.68c1.12.64,2.24,1.28,3.36,1.92.65-.53.46-.17.72-1.2l-.48-.72c-1.2-.56-2.4-1.12-3.6-1.68Z"/>
  <path class="cls-2" d="M50.63,22.89c-2.4,1.8-4.95,2.86-6.48,5.52l.48.72h.24c2.56-1.84,5.12-3.68,7.68-5.52l-.48-.72h-1.44Z"/>
  <path class="cls-2" d="M63.11,23.61l-.96.72c-.75,2.31-.72,4.28.48,6.24l.72.24.48-.24.24-.72c-.86-2.07-.49-3.64,0-5.76l-.96-.48Z"/>
  <path class="cls-2" d="M42.71,23.85c-15.17,13.28-34.79,31.3-28.32,62.64l.72.24.72-.48c-.26-10.88-.11-34.45,6.96-36.96-.86,4.59-5.17,8.92-4.56,13.68l.48.24.96-.48c1.84-4.56,3.68-9.12,5.52-13.68,1.45-2.39,4.5-4.15,5.28-6.96l-.24-.24c-1.04.32-2.08.64-3.12.96,1.79-6.29,13.4-13.38,17.28-18.24l-.24-.72h-1.44Z"/>
  <path class="cls-2" d="M98.87,25.29c-3.12.48-6.24.96-9.36,1.44-7.67,1.88-11.97,4.56-17.04,8.64-1.78,1.43-3.83,2.55-4.08,5.52l.48.24c5.53-3.24,8.3-9.05,15.36-11.28,3.31-1.05,17.62-1.88,19.44-3.6l-.72-.96h-4.08Z"/>
  <path class="cls-2" d="M109.91,26.01c-.56.24-1.12.48-1.68.72l.48,1.2c1.93.13,3.36.48,4.32-.48-.79-1.09-1.63-1.04-3.12-1.44Z"/>
  <path class="cls-2" d="M116.15,27.69l-.48.72.96.96.96-.24v-.24c-.31-.72-.15-.54-.72-.96l-.72-.24Z"/>
  <path class="cls-2" d="M21.11,28.89c-.56.72-1.12,1.44-1.68,2.16.51.31.35.3,1.2.48.56-.4,1.12-.8,1.68-1.2l-.24-1.44h-.96Z"/>
  <path class="cls-2" d="M40.07,30.33l-1.2,1.2.24,1.2h.24c1.04-.34,1.37-.63,1.92-1.44l-.24-.96h-.96Z"/>
  <path class="cls-2" d="M15.11,35.61C8.61,44.5.43,61.83,4.31,79.05l.72.24c1.99-3.07.61-15.31,1.44-19.68.92-4.84,2.05-10.6,4.32-14.4,1.69-2.83,4.63-5.68,5.52-9.12l-.48-.48h-.72Z"/>
  <path class="cls-2" d="M34.55,39.69c.05,1.08.17,1.29.48,1.92,2.4.89,5.73,2.02,7.2-.72,1.21-1.15,1.35-3.72,0-4.8-.86.81-1.13,3.31-1.68,4.32-2.59.73-3.45-.42-6-.72Z"/>
  <path class="cls-2" d="M62.87,42.57c-2.9,3.02-6.29,10.89-3.36,16.56l.96-.48v-7.44c.66-3.2,2.43-5.31,3.6-7.92l-.48-.72h-.72Z"/>
  <path class="cls-2" d="M68.15,43.29c-1.78,1.63-4.71,4.54-3.84,7.92h.24l.96-.24c.81-3.16,3-4.46,3.84-7.2l-.48-.48h-.72Z"/>
  <path class="cls-2" d="M41.99,48.57l-.96.72.24.72c.78.32,1.53.6,2.4.24l.72-.48-.24-.72c-.72-.16-1.44-.32-2.16-.48Z"/>
  <path class="cls-2" d="M35.27,49.77c-.88.64-1.76,1.28-2.64,1.92v.48l.72.48c1.47-.38,2.61-1.04,3.36-2.16-.55-.58-.38-.52-1.44-.72Z"/>
  <path class="cls-2" d="M47.27,50.01l-.24,1.2c1.52,1.44,3.04,2.88,4.56,4.32l.96-.24v-.96c-1.36-1.44-2.72-2.88-4.08-4.32h-1.2Z"/>
  <path class="cls-2" d="M54.71,50.01c-.92,2.18-.75,5.9-.24,8.16h1.44c.07-3.01.46-6.36-.48-8.16h-.72Z"/>
  <path class="cls-2" d="M61.68,96.57c-1.43-.5-2.62.25-3.84-.24.05-6.05,3-2.81,4.08-6.24,1.13-3.64-1.25-7.44-.96-9.6,7.97-2.59,1.18-9.43,0-13.92.08-.08.16-.16.24-.24h2.4v-.96c-2-.72-4-1.44-6-2.16-.84,3.54,4.33,9.1,5.76,12.24-1.93,5.08-4.52,1.61-8.64,3.36v.72c.24.08.48.16.72.24,1.83.67,2.97.13,4.32.96v5.28c-9.49,3.8-13.49-3.07-18.48-6.24-.33.54-.35.47-.48,1.44,2.51,4.81,3.04,11.34,4.08,18-.08,2.88-.16,5.76-.24,8.64h.24c1.78-.74,1.58-3.69,2.4-5.28,5.42.07,13.93-.24,16.32,2.64h.96c.08-.24.16-.48.24-.72-.64-1.57-1.72-6.94-3.12-7.92ZM42.86,82.98c.28.23,4.79,4.09,6.61,4.6,1.88.53,10.03.24,11.09-.43.86.77.82,2.21.82,2.21,0,0-1.84,2.61-2.99,2.65-1.16.05-6.13-.72-6.13-.72l-2.21-.29-4.1.43c-.17-1.18-2.92-8.02-3.09-8.45ZM56.68,101.31c-2.73-.09-10.16.1-10.16.1l-.28-2.07.19-1.81s5.4.26,6.37,0c.97-.26,4.35,0,4.35,0l3.33-.36s1.19.28,1.47,1.32c.29,1.03,1.6,4.8,1.6,4.8,0,0-4.14-1.88-6.87-1.98Z"/>
  <path class="cls-2" d="M35.75,63.45c-2,1.04-4,2.08-6,3.12v.72l.24.24c3.08-.16,4.15-1.89,6.72-2.4,4.21-.84,5.63,2.71,8.64,2.16v-.24l-.24-.48c-1.37-2.69-5.12-3.25-9.36-3.12Z"/>
  <path class="cls-2" d="M10.55,64.65l-.72.96.24,1.44h1.2l.24-.48v-1.92h-.96Z"/>
  <path class="cls-2" d="M23.99,68.25c-1.28.16-2.56.32-3.84.48l.48,1.44c1.96.22,4.02.08,5.52-.72l.24-.48-.48-.72h-1.92Z"/>
  <path class="cls-2" d="M9.35,70.41c-3.11,6.06,1.06,27.48,3.6,31.68.88-.25.71-.2,1.2-.72-1.48-6.62-2.63-13.7-3.84-21.36-.52-3.32.83-7.24-.24-9.6h-.72Z"/>
  <path class="cls-2" d="M27.83,71.37c-1.36.8-2.72,1.6-4.08,2.4l.24,1.2h1.2c1.64-.63,3.1-1.35,4.08-2.64l-.24-.96h-1.2Z"/>
  <path class="cls-2" d="M51.59,75.93c-.54.79-1.11,1.8-.72,2.88l.48,1.44,1.2-.24c.14-1.91.23-3.4-.96-4.08Z"/>
  <path class="cls-2" d="M18.23,83.85c-1.26,2.55.04,8.34,1.2,10.32h.72l.24-.72c.62-1.77-.67-8.8-2.16-9.6Z"/>
  <path class="cls-2" d="M15.59,90.09v2.88l.48.96h.72l.24-.72c-.08-.96-.16-1.92-.24-2.88l-1.2-.24Z"/>
  <path class="cls-2" d="M37.67,93.21c-.43.86-.47,1.51-.24,2.64l.48.24.96-.48c-.16-.8-.32-1.6-.48-2.4h-.72Z"/>
  <path class="cls-2" d="M7.67,96.57c-1.91,4.6,2.6,13.19,4.56,16.32l1.2-.24c-.3-3.83-3.55-11.1-4.8-15.84l-.96-.24Z"/>
  <path class="cls-2" d="M16.79,96.57l-.48.96c5.67,17.21,14.67,29.84,30.48,36.72,3.37,1.47,10.13,6.86,14.4,5.04v-.72c-5.37-2.64-21.43-7.09-23.04-12.24,1.36.56,2.72,1.12,4.08,1.68.31-.51.3-.35.48-1.2-4.51-3.21-7.29-7.77-11.52-11.04l-.96.24v.24c.68,3.5,4.24,4.43,5.28,7.68l-.96-.48c-5.95-2.9-11.36-11.7-13.92-18-1.04-2.96-2.08-5.92-3.12-8.88h-.72Z"/>
  <path class="cls-2" d="M25.91,97.53c-1.12.56-2.24,1.12-3.36,1.68.15.87.1.73.48,1.2,3.75-.82,7.84-1.41,8.88,2.88.73,3.01-2.59,4.75,0,5.76l.96-.72c1.98-5.68-.37-10.81-6.96-10.8Z"/>
  <path class="cls-2" d="M134.87,103.29c-1.76,1.44-3.52,2.88-5.28,4.32v.96l.72.24c2.61-1.05,4.24-2.69,6-4.56v-.72l-.24-.24h-1.2Z"/>
  <path class="cls-2" d="M68.39,105.45l-.24,1.44c2.96,2.69,5.13,5.16,9.36,6.72.73-.48.62-.24.96-1.2-2.33-1.52-8.02-6.49-10.08-6.96Z"/>
  <path class="cls-2" d="M14.63,106.17c-1.45,5.71,12.16,22.61,15.84,24.96l1.2-.24v-.96c-5.07-3.91-9.84-11.01-13.2-16.56-1.04-2.4-2.08-4.8-3.12-7.2h-.72Z"/>
  <path class="cls-2" d="M60.95,107.61l-.48.24c.48,4.77,7.11,10.39,12,10.8l.48-.72-.24-.24c-1.92-1.2-3.84-2.4-5.76-3.6-1.84-2.08-3.68-4.16-5.52-6.24l-.48-.24Z"/>
  <path class="cls-2" d="M65.99,108.09l-.24,1.44c1.15,1.17,1.14,2.17,3.36,2.4l.24-.48v-.24c-.91-1.31-1.48-2.74-3.36-3.12Z"/>
  <path class="cls-2" d="M134.39,108.57c-1.44.91-11,5.83-11.28,6.72l.24.24c4.03-.04,5.38-2.06,8.64-2.64l.24.24v.24c-1.49,2.38-2.72,4.58-4.32,6.72.27.87.27.66.72,1.2,2.83-1.5,7.49-8.48,6.96-12.24l-1.2-.48Z"/>
  <path class="cls-2" d="M124.79,109.29c-8.3,4.36-20.01,4.81-32.64,4.8-3.12-.24-6.24-.48-9.36-.72v1.2l.48.24c10.42,2.52,37.68,1.27,42.96-4.56l-.24-.96h-1.2Z"/>
  <path class="cls-2" d="M73.19,113.61l-.48.72c5.73,6.94,35.83,7.56,44.4,2.64v-.24l-.24-.96h-.24c-6.45.76-12.4,4.07-20.16,2.88-4.72-.72-9.44-1.44-14.16-2.16-3.04-.96-6.08-1.92-9.12-2.88Z"/>
  <path class="cls-2" d="M15.11,116.73c-.85,2.27.72,4.62,2.64,5.04l.24-.24c-.56-1.52-1.12-3.04-1.68-4.56l-1.2-.24Z"/>
  <path class="cls-2" d="M122.39,117.45c-.88.48-1.76.96-2.64,1.44.3.73,0,.29.48.72,1.41.6,2.99-.42,3.6-1.44l-.72-.48-.72-.24Z"/>
  <path class="cls-2" d="M125.75,118.65c-2.4,2-4.8,4-7.2,6l.48.72c.88-.16,1.76-.32,2.64-.48-.81,2.37-3.67,3.66-5.52,5.04-8.21,6.11-16.89,8.56-29.28,11.04-3.28.24-6.56.48-9.84.72l-.24.48.48.96c19.99.39,32.24-6,43.2-14.4,1.68-1.28,3.36-2.56,5.04-3.84l-.24-.96h-.24c-1.04.4-2.08.8-3.12,1.2.67-2.19,3.65-4.24,5.52-5.28v-.24l-.48-.96h-1.2Z"/>
  <path class="cls-2" d="M48.71,119.37c-1.53.94-2.69,1.29-3.36,3.12-.82,1.55-.17,3.01,1.2,3.36.86-3.72,1.03-4.02,4.56-5.04v-.96l-.48-.48h-1.92Z"/>
  <path class="cls-2" d="M114.47,119.61c-5.03,2.63-12.06.66-18.72,2.4v.24c.32.92,0,.5.72.96,4.88,2.24,17.15-.05,19.44-2.64-.47-.81-.38-.71-1.44-.96Z"/>
  <path class="cls-2" d="M79.91,124.17l-1.2.72v.72l.72.24h2.16l.24-.96-.48-.48-1.44-.24Z"/>
  <path class="cls-2" d="M36.71,132.57l-.48.24v.96c14.63,7.53,33.48,17.9,54.72,12.48l.24-.48-.24-.96c-4.72.56-9.44,1.12-14.16,1.68-7.85-1.16-14.92-3.13-21.6-5.76-5.9-2.33-11.5-7.75-18.48-8.16Z"/>
  <path class="cls-2" d="M104.63,132.57c-2.96,1.04-5.92,2.08-8.88,3.12v.72l.24.24c4,.09,7.75-1.19,9.84-3.12v-.24l-1.2-.72Z"/>
  <path class="cls-2" d="M53.99,132.81v1.44c9.19,2.29,16.96,4.64,28.8,4.56,3.72-.02,7.26.09,9.6-1.2v-.24l-.72-.72c-6.08.16-12.16.32-18.24.48-6.86-1.18-12.67-4.14-19.44-4.32Z"/>
  <path class="cls-2" d="M65.27,139.77c-.18.89-.11.93.24,1.68,2.04.35,3.91,1.07,6,.72v-.96c-1.62-.86-3.85-1.34-6.24-1.44Z"/>
  <path class="cls-2" d="M101.51,141.69c-1.35.88-3.29.95-4.32,2.16l.48.72c2.34.03,4.24-.62,5.28-1.92l-.24-.96h-1.2Z"/>
  <path class="cls-1" d="M63.55,103.29s-4.14-1.88-6.87-1.98c-2.73-.09-10.16.1-10.16.1l-.28-2.07.19-1.81s5.4.26,6.37,0c.97-.26,4.35,0,4.35,0l3.33-.36s1.19.28,1.47,1.32c.29,1.03,1.6,4.8,1.6,4.8Z"/>
</svg>