<?xml version="1.0" encoding="UTF-8"?>
<svg id="Calque_1" xmlns="http://www.w3.org/2000/svg" version="1.1" viewBox="0 0 140.5 149.5">
  <!-- Generator: Adobe Illustrator 29.5.1, SVG Export Plug-In . SVG Version: 2.1.0 Build 141)  -->
  <defs>
    <style>
      .st0 {
        fill: #e4b203;
        fill-rule: evenodd;
      }
    </style>
  </defs>
  <path class="st0" d="M73.2,8.3c-2.1.8-4.5.6-6.2,1.4v1l.2.2c4.2-.2,9.4-1.5,14.4-.7,3.7.6,7.4,1.3,11,1.9l.5-.5v-.7l-.5-.5c-5.8-1.4-11.9-2.1-19.4-2.2Z"/>
  <path class="st0" d="M61,11.1l-1,.5c.2,1.3,0,1,1.4,1.2l.5-.7-.2-.7s-.7-.2-.7-.2Z"/>
  <path class="st0" d="M99.1,11.9l-.7.7.5,1c6.7,1.6,14.1,6.1,18.2,10.6,1.3,1.4,3.6,5.1,5.5,3.6-3.1-5.8-15.8-14.9-23.5-15.8Z"/>
  <path class="st0" d="M76.3,12.3c-2.2.3-4.3.6-6.5,1-6.8,1.7-15.1,3.5-20.6,6.7l.2,1.2c9.9-.6,18.6-9.1,31.2-7,3.9.4,7.8.8,11.8,1.2,3.6.9,11.6,5.2,14.4,4.6v-.7c-7.3-4.8-18.6-6.9-30.5-7Z"/>
  <path class="st0" d="M51.6,14c-3.5,1.5-7,3-10.6,4.6-10.4,6.3-19.3,15.7-25.7,26.2-1.2,2-6.3,14.7-4.1,17,2.4-1.9,2.1-7.8,3.1-11,1.8-5.7,5.8-10.5,9.1-14.9,3.8-5,12.8-12.3,18.2-15.6,3.9-1.8,7.8-3.5,11.8-5.3l-.2-1s-1.7,0-1.7,0Z"/>
  <path class="st0" d="M88.8,17.6c-1.2.7-1.9.8-2.6,1.9l.5.7,4.8-1.2v-1l-.7-.2c-.6,0-1.3-.2-1.9-.2Z"/>
  <path class="st0" d="M95.8,21.2c-4,.7-8,1.4-12,2.2-8.6,2.6-13.9,6.9-19.9,11.8-2.6,2.1-7.8,6.9-7,11.3l1.4-.5c4.5-14,20.4-20.1,36.5-22.8,4.1-.7,7.5,1,10.8.5v-1.2l-.5-.2c-2.8-.6-5.7-1-9.4-1Z"/>
  <path class="st0" d="M67.2,21.9l-.7.7.5,1c1.6.5,2.3,1.2,3.6.7v-.7c-1.1-.8-1.5-1.5-3.4-1.7Z"/>
  <path class="st0" d="M110.4,21.9v1.7c1.1.6,2.2,1.3,3.4,1.9.7-.5.5-.2.7-1.2l-.5-.7c-1.2-.6-2.4-1.1-3.6-1.7Z"/>
  <path class="st0" d="M50.6,22.9c-2.4,1.8-5,2.9-6.5,5.5l.5.7h.2c2.6-1.8,5.1-3.7,7.7-5.5l-.5-.7h-1.4Z"/>
  <path class="st0" d="M63.1,23.6l-1,.7c-.8,2.3-.7,4.3.5,6.2l.7.2.5-.2.2-.7c-.9-2.1-.5-3.6,0-5.8l-1-.5Z"/>
  <path class="st0" d="M42.7,23.9c-15.2,13.3-34.8,31.3-28.3,62.6l.7.2.7-.5c-.3-10.9-.1-34.5,7-37-.9,4.6-5.2,8.9-4.6,13.7l.5.2,1-.5c1.8-4.6,3.7-9.1,5.5-13.7,1.5-2.4,4.5-4.2,5.3-7l-.2-.2c-1,.3-2.1.6-3.1,1,1.8-6.3,13.4-13.4,17.3-18.2l-.2-.7s-1.4,0-1.4,0Z"/>
  <path class="st0" d="M98.9,25.3c-3.1.5-6.2,1-9.4,1.4-7.7,1.9-12,4.6-17,8.6-1.8,1.4-3.8,2.5-4.1,5.5l.5.2c5.5-3.2,8.3-9,15.4-11.3,3.3-1,17.6-1.9,19.4-3.6l-.7-1s-4.1,0-4.1,0Z"/>
  <path class="st0" d="M109.9,26c-.6.2-1.1.5-1.7.7l.5,1.2c1.9.1,3.4.5,4.3-.5-.8-1.1-1.6-1-3.1-1.4Z"/>
  <path class="st0" d="M116.2,27.7l-.5.7,1,1,1-.2v-.2c-.3-.7-.2-.5-.7-1,0,0-.7-.2-.7-.2Z"/>
  <path class="st0" d="M21.1,28.9c-.6.7-1.1,1.4-1.7,2.2.5.3.4.3,1.2.5.6-.4,1.1-.8,1.7-1.2l-.2-1.4s-1,0-1,0Z"/>
  <path class="st0" d="M40.1,30.3l-1.2,1.2.2,1.2h.2c1-.3,1.4-.6,1.9-1.4l-.2-1h-1Z"/>
  <path class="st0" d="M15.1,35.6C8.6,44.5.4,61.8,4.3,79.1l.7.2c2-3.1.6-15.3,1.4-19.7.9-4.8,2-10.6,4.3-14.4,1.7-2.8,4.6-5.7,5.5-9.1l-.5-.5h-.7Z"/>
  <path class="st0" d="M34.5,39.7c0,1.1.2,1.3.5,1.9,2.4.9,5.7,2,7.2-.7,1.2-1.2,1.3-3.7,0-4.8-.9.8-1.1,3.3-1.7,4.3-2.6.7-3.5-.4-6-.7Z"/>
  <path class="st0" d="M62.9,42.6c-2.9,3-6.3,10.9-3.4,16.6l1-.5v-7.4c.7-3.2,2.4-5.3,3.6-7.9l-.5-.7h-.7Z"/>
  <path class="st0" d="M68.2,43.3c-1.8,1.6-4.7,4.5-3.8,7.9h.2l1-.2c.8-3.2,3-4.5,3.8-7.2l-.5-.5s-.7,0-.7,0Z"/>
  <path class="st0" d="M42,48.6l-1,.7.2.7c.8.3,1.5.6,2.4.2l.7-.5-.2-.7c-.7-.2-1.4-.3-2.2-.5Z"/>
  <path class="st0" d="M35.3,49.8c-.9.6-1.8,1.3-2.6,1.9v.5l.7.5c1.5-.4,2.6-1,3.4-2.2-.5-.6-.4-.5-1.4-.7Z"/>
  <path class="st0" d="M47.3,50l-.2,1.2c1.5,1.4,3,2.9,4.6,4.3l1-.2v-1c-1.4-1.4-2.7-2.9-4.1-4.3h-1.2Z"/>
  <path class="st0" d="M54.7,50c-.9,2.2-.8,5.9-.2,8.2h1.4c0-3,.5-6.4-.5-8.2,0,0-.7,0-.7,0Z"/>
  <path class="st0" d="M61.7,96.6c-1.4-.5-2.6.2-3.8-.2,0-6.1,3-2.8,4.1-6.2,1.1-3.6-1.2-7.4-1-9.6,8-2.6,1.2-9.4,0-13.9,0,0,.2-.2.2-.2h2.4v-1c-2-.7-4-1.4-6-2.2-.8,3.5,4.3,9.1,5.8,12.2-1.9,5.1-4.5,1.6-8.6,3.4v.7c.2,0,.5.2.7.2,1.8.7,3,.1,4.3,1v5.3c-9.5,3.8-13.5-3.1-18.5-6.2-.3.5-.3.5-.5,1.4,2.5,4.8,3,11.3,4.1,18,0,2.9-.2,5.8-.2,8.6h.2c1.8-.7,1.6-3.7,2.4-5.3,5.4,0,13.9-.2,16.3,2.6h1c0-.2.2-.5.2-.7-.6-1.6-1.7-6.9-3.1-7.9h0ZM42.9,83c.3.2,4.8,4.1,6.6,4.6,1.9.5,10,.2,11.1-.4.9.8.8,2.2.8,2.2,0,0-1.8,2.6-3,2.7-1.2,0-6.1-.7-6.1-.7l-2.2-.3-4.1.4c-.2-1.2-2.9-8-3.1-8.4ZM56.7,101.3c-2.7,0-10.2,0-10.2,0l-.3-2.1.2-1.8s5.4.3,6.4,0c1-.3,4.3,0,4.3,0l3.3-.4s1.2.3,1.5,1.3c.3,1,1.6,4.8,1.6,4.8,0,0-4.1-1.9-6.9-2Z"/>
  <path class="st0" d="M35.8,63.5c-2,1-4,2.1-6,3.1v.7l.2.2c3.1-.2,4.1-1.9,6.7-2.4,4.2-.8,5.6,2.7,8.6,2.2v-.2l-.2-.5c-1.4-2.7-5.1-3.2-9.4-3.1Z"/>
  <path class="st0" d="M10.6,64.7l-.7,1,.2,1.4h1.2l.2-.5v-1.9s-1,0-1,0Z"/>
  <path class="st0" d="M24,68.3c-1.3.2-2.6.3-3.8.5l.5,1.4c2,.2,4,0,5.5-.7l.2-.5-.5-.7h-1.9Z"/>
  <path class="st0" d="M9.4,70.4c-3.1,6.1,1.1,27.5,3.6,31.7.9-.2.7-.2,1.2-.7-1.5-6.6-2.6-13.7-3.8-21.4-.5-3.3.8-7.2-.2-9.6h-.7Z"/>
  <path class="st0" d="M27.8,71.4c-1.4.8-2.7,1.6-4.1,2.4l.2,1.2h1.2c1.6-.6,3.1-1.3,4.1-2.6l-.2-1h-1.2Z"/>
  <path class="st0" d="M51.6,75.9c-.5.8-1.1,1.8-.7,2.9l.5,1.4,1.2-.2c.1-1.9.2-3.4-1-4.1Z"/>
  <path class="st0" d="M18.2,83.8c-1.3,2.6,0,8.3,1.2,10.3h.7l.2-.7c.6-1.8-.7-8.8-2.2-9.6Z"/>
  <path class="st0" d="M15.6,90.1v2.9l.5,1h.7l.2-.7-.2-2.9s-1.2-.2-1.2-.2Z"/>
  <path class="st0" d="M37.7,93.2c-.4.9-.5,1.5-.2,2.6l.5.2,1-.5c-.2-.8-.3-1.6-.5-2.4,0,0-.7,0-.7,0Z"/>
  <path class="st0" d="M7.7,96.6c-1.9,4.6,2.6,13.2,4.6,16.3l1.2-.2c-.3-3.8-3.6-11.1-4.8-15.8,0,0-1-.2-1-.2Z"/>
  <path class="st0" d="M16.8,96.6l-.5,1c5.7,17.2,14.7,29.8,30.5,36.7,3.4,1.5,10.1,6.9,14.4,5v-.7c-5.4-2.6-21.4-7.1-23-12.2,1.4.6,2.7,1.1,4.1,1.7.3-.5.3-.3.5-1.2-4.5-3.2-7.3-7.8-11.5-11l-1,.2v.2c.7,3.5,4.2,4.4,5.3,7.7l-1-.5c-6-2.9-11.4-11.7-13.9-18-1-3-2.1-5.9-3.1-8.9,0,0-.7,0-.7,0Z"/>
  <path class="st0" d="M25.9,97.5c-1.1.6-2.2,1.1-3.4,1.7.1.9.1.7.5,1.2,3.8-.8,7.8-1.4,8.9,2.9.7,3-2.6,4.8,0,5.8l1-.7c2-5.7-.4-10.8-7-10.8Z"/>
  <path class="st0" d="M134.9,103.3c-1.8,1.4-3.5,2.9-5.3,4.3v1l.7.2c2.6-1.1,4.2-2.7,6-4.6v-.7l-.2-.2h-1.2Z"/>
  <path class="st0" d="M68.4,105.4l-.2,1.4c3,2.7,5.1,5.2,9.4,6.7.7-.5.6-.2,1-1.2-2.3-1.5-8-6.5-10.1-7Z"/>
  <path class="st0" d="M14.6,106.2c-1.4,5.7,12.2,22.6,15.8,25l1.2-.2v-1c-5.1-3.9-9.8-11-13.2-16.6-1-2.4-2.1-4.8-3.1-7.2h-.7Z"/>
  <path class="st0" d="M61,107.6l-.5.2c.5,4.8,7.1,10.4,12,10.8l.5-.7-.2-.2c-1.9-1.2-3.8-2.4-5.8-3.6-1.8-2.1-3.7-4.2-5.5-6.2,0,0-.5-.2-.5-.2Z"/>
  <path class="st0" d="M66,108.1l-.2,1.4c1.2,1.2,1.1,2.2,3.4,2.4l.2-.5v-.2c-.9-1.3-1.5-2.7-3.4-3.1Z"/>
  <path class="st0" d="M134.4,108.6c-1.4.9-11,5.8-11.3,6.7l.2.2c4,0,5.4-2.1,8.6-2.6l.2.2v.2c-1.5,2.4-2.7,4.6-4.3,6.7.3.9.3.7.7,1.2,2.8-1.5,7.5-8.5,7-12.2l-1.2-.5h0Z"/>
  <path class="st0" d="M124.8,109.3c-8.3,4.4-20,4.8-32.6,4.8-3.1-.2-6.2-.5-9.4-.7v1.2l.5.2c10.4,2.5,37.7,1.3,43-4.6l-.2-1h-1.2Z"/>
  <path class="st0" d="M73.2,113.6l-.5.7c5.7,6.9,35.8,7.6,44.4,2.6v-.2l-.2-1h-.2c-6.4.8-12.4,4.1-20.2,2.9l-14.2-2.2c-3-1-6.1-1.9-9.1-2.9Z"/>
  <path class="st0" d="M15.1,116.7c-.9,2.3.7,4.6,2.6,5l.2-.2c-.6-1.5-1.1-3-1.7-4.6,0,0-1.2-.2-1.2-.2Z"/>
  <path class="st0" d="M122.4,117.4c-.9.5-1.8,1-2.6,1.4.3.7,0,.3.5.7,1.4.6,3-.4,3.6-1.4l-.7-.5-.7-.2Z"/>
  <path class="st0" d="M125.8,118.7c-2.4,2-4.8,4-7.2,6l.5.7c.9-.2,1.8-.3,2.6-.5-.8,2.4-3.7,3.7-5.5,5-8.2,6.1-16.9,8.6-29.3,11-3.3.2-6.6.5-9.8.7l-.2.5.5,1c20,.4,32.2-6,43.2-14.4l5-3.8-.2-1h-.2c-1,.4-2.1.8-3.1,1.2.7-2.2,3.7-4.2,5.5-5.3v-.2l-.5-1h-1.2Z"/>
  <path class="st0" d="M48.7,119.4c-1.5.9-2.7,1.3-3.4,3.1-.8,1.6-.2,3,1.2,3.4.9-3.7,1-4,4.6-5v-1l-.5-.5h-1.9Z"/>
  <path class="st0" d="M114.5,119.6c-5,2.6-12.1.7-18.7,2.4v.2c.3.9,0,.5.7,1,4.9,2.2,17.2,0,19.4-2.6-.5-.8-.4-.7-1.4-1Z"/>
  <path class="st0" d="M79.9,124.2l-1.2.7v.7l.7.2h2.2l.2-1-.5-.5-1.4-.2Z"/>
  <path class="st0" d="M36.7,132.6l-.5.2v1c14.6,7.5,33.5,17.9,54.7,12.5l.2-.5-.2-1-14.2,1.7c-7.8-1.2-14.9-3.1-21.6-5.8-5.9-2.3-11.5-7.8-18.5-8.2Z"/>
  <path class="st0" d="M104.6,132.6c-3,1-5.9,2.1-8.9,3.1v.7l.2.2c4,0,7.8-1.2,9.8-3.1v-.2s-1.2-.7-1.2-.7Z"/>
  <path class="st0" d="M54,132.8v1.4c9.2,2.3,17,4.6,28.8,4.6,3.7,0,7.3,0,9.6-1.2v-.2l-.7-.7c-6.1.2-12.2.3-18.2.5-6.9-1.2-12.7-4.1-19.4-4.3h0Z"/>
  <path class="st0" d="M65.3,139.8c-.2.9-.1.9.2,1.7,2,.4,3.9,1.1,6,.7v-1c-1.6-.9-3.8-1.3-6.2-1.4h0Z"/>
  <path class="st0" d="M101.5,141.7c-1.3.9-3.3.9-4.3,2.2l.5.7c2.3,0,4.2-.6,5.3-1.9l-.2-1h-1.2Z"/>
</svg>