<?xml version="1.0" encoding="UTF-8"?>
<svg id="Calque_1" xmlns="http://www.w3.org/2000/svg" version="1.1" viewBox="0 0 239.6 242.9">
  <!-- Generator: Adobe Illustrator 29.5.1, SVG Export Plug-In . SVG Version: 2.1.0 Build 141)  -->
  <defs>
    <style>
      .st0 {
        fill: #e4b203;
        fill-rule: evenodd;
      }
    </style>
  </defs>
  <path class="st0" d="M110.8.7c-1.5.7-3.2.8-4.1,2.2v1.2h.2c1.8-.4,3.2-2,5.8-1.4,7.2,1.5,9.6,12.6,7.2,21.1-3.5,12.6-12.8,17.2-15.6,30.7-.9,4.1-1.8,11.3.2,14.9,1.6.3,14.2-2.2,15.1-3.1-1.2-1.5-3.7-.6-5.3-1.2-.2-2.6-.5-5.1-.7-7.7.5-1.7,1-3.4,1.4-5v-.2c-.3-.6-.5-.2-1.2-.5-2.3,3.8-1.6,8.9-1.4,14.4-1.6.5-5.8,2.3-7,.7-2.5-5,.8-15.3,2.4-19,1.7-3.8,4.6-6.5,7-9.6,5.2-6.7,7.3-14,7.2-25.7l1.2.5c2,9.8-1.2,18.9-3.1,27.1-2.2,9.5-.5,20.4,2.4,27.1,1.7,0,2.2-.5,3.1-1.2.9-3.2-1-10.4-2.6-13.2l-1.4.5-.5-.5c-3.2-17.4,12.3-29.7.2-46.1-2.3-3.2-5.2-5.9-10.6-6Z"/>
  <path class="st0" d="M57.2,12.4c-.3.7-.4.5-.2,1.2.3,1.3.8,2.2,1.7,2.9h.5l.5-1-1.4-2.9s-1-.2-1-.2Z"/>
  <path class="st0" d="M128.5,16.8v6.5h1l.5-.5c.2-2.4.2-4.3-.7-6h-.7Z"/>
  <path class="st0" d="M175.6,17.5c-3.6,3.6-5,10.7-7.2,15.6-1.5,2.6-3,5.3-4.6,7.9-3.4,8.2-6.4,15.7-10.1,24-1.3,2.9-3.9,5.4-4.3,9.1l.2.5h.2l1-.2,6-12c6.2-15.4,12.7-29.3,19.7-44.2l-1-.7h0Z"/>
  <path class="st0" d="M60.8,19.6c-.4,1.8.5,2.5,1,4.1-1.9-.6-2.4-2.6-3.6-3.8h-.2c-.3.6-.4.6-.5,1.7.7,1.3,1.4,2.6,2.2,3.8l-1.4,1,.2,1.4h1.4c.3-1.2.2-1.6,1.2-1,4.7,3.1,6.9,9.9,10.1,14.6,4.4,6.7,10.2,13,14.9,19.4,1.7,2.3,5.1,10.7,8.2,10.3-.5-4.8-5.8-9.7-8.4-13-5.6-7.1-10.6-14.5-15.4-22.3-1.6-2.6-4.5-4.7-5.3-7.9l1.4-1c-.9-2-3.1-6.1-5-7.2,0,0-.7-.2-.7-.2Z"/>
  <path class="st0" d="M167.4,24c-4.7,4.5-9.4,9-14.2,13.4-7.6,9.6-15.6,18.5-23.8,27.6.2.7.3,1.4.5,2.2,7,1.9,12.1,6.8,17.5,8.2l.5-.5v-.7c-1.9-1.4-3.8-2.9-5.8-4.3,1.3-3.1,3.9-5.1,4.6-8.6l-.2-.5c-2.7.6-4.9,6.1-6.2,8.2l-8.2-2.9-.2-1.2c3.8-2.9,6.6-7.5,9.6-11.3,1.4-1.1,2.9-2.2,4.3-3.4,3.2-4.2,6.4-8.3,9.6-12.5,3.7-4.5,9.2-8.1,13.2-12.5l-.2-1.2h-1,0Z"/>
  <path class="st0" d="M128,28c-2.8,4.2-6.6,13.2-5.8,19.7h1.4v-.5c.6-2.8,1.1-5.6,1.7-8.4,1.3-3.4,2.6-6.7,3.8-10.1l-.2-.5-1-.2h0Z"/>
  <path class="st0" d="M59.4,30l-.5.5c.3,2,1.4,3.2,1,5.3-.6.2-1.1.3-1.7.5,0,5.5,5.1,23,7.4,25.4l1-.5v-3.1l.5.2c1.3,4.7,6.9,26.2,10.8,26.4,4-5.1,11.7-6.6,15.4-11l-.2-1h-1c-1.8,1-3.7,1.9-5.5,2.9-2.9-1.8-3.1-6.3-5.8-8.4h-.5l-.5.7c1.4,2.8,2.9,5.6,4.3,8.4l-.7,1.4c-2.3,1-4.7,4.9-7,4.1-1.8-11.8-8.7-23.4-11.8-34.1-1.8-6.1-1.6-12.9-4.6-17.8,0,0-.7,0-.7,0Z"/>
  <path class="st0" d="M167.6,42.2c-.5.9-.8,1.2-1,2.6l.2.5h.2l1-.2c.2-.8.5-1.6.7-2.4l-.2-.5s-1,0-1,0Z"/>
  <path class="st0" d="M210.6,51.3l-1.2,1,.2,1.2h1c.6-.6.7-.6,1-1.7l-1-.5h0Z"/>
  <path class="st0" d="M214.9,51.3c-.2.9-.1.9.2,1.7,9.8,4.2.2,14.1-3.8,16.8-4.7,3.2-13.3,6.1-21.6,4.6-3.5-.7-8.4-2-13.2-1.2-7.9,1.4-15.1,4.3-19.7,9.1l.2,1.2c3,3.6,6.1,7.2,9.1,10.8l1.2-.2c-.2-2.1-1.1-2.7-1.9-4.1l.5-1.4,5.8-3.8c1.8-.6,3.7-1.1,5.5-1.7v-.2l-.7-.7c-4.7-1.4-9.6,4-12.5,5.8-1.9-.5-4.4-3.2-4.8-5.3l1-1.2c5.7-2.2,10.3-5.3,17.8-6.5,7.8-1.2,14,2.8,21.6,1.2,3.6-.8,7.7-1.7,10.6-3.4,1.7-1,3.4-2.1,5-3.1-1.1,4.4-6.1,5.4-9.8,7.2-10.1,4.8-33,8.2-35.8,19.2l.2.2h1.2c2.1-2.4,4.9-6.2,8.4-7-.9,2.9-4.9,5.2-7,7.2l.2,1.4h1c3.3-4.3,8.1-8.1,13.9-9.8,3.3-1,7-.9,9.6-2.4v-.2l-.2-.7c-5.4,0-9.6,2.2-14.4,2.9,1.2-2.8,7-3.6,10.1-4.6,9.7-3,17.1-5.7,24-11h.7c0,.6.2,1.1.2,1.7,1.1-.2.7,0,1.2-.7v-1.7c-1,0-.9,0-1.4-.5,2.4-4.7,7.3-18.6-2.4-19.4h0Z"/>
  <path class="st0" d="M162.4,53.3c-1,3-2.1,5.9-3.1,8.9-2.1,4.6-4.2,9.3-6.2,13.9l.7,1c3.3-2.3,9.1-18,9.8-23.3l-.5-.5s-.7,0-.7,0Z"/>
  <path class="st0" d="M100.9,54.2c-1.6,2.8-2.4,8.8-1.4,12.5l.7.2.5-.7c.7-1.8,1.3-11.3,1-12h-.7Z"/>
  <path class="st0" d="M149.4,54.9c-.5.6-1,1.3-1.4,1.9l.2,1.2h.2c1.5-.5,2.4-1.4,1.9-3.1h-1Z"/>
  <path class="st0" d="M77.2,60.9l-.5.7c.4.9.8,1.8,1.2,2.6l1.2-.2c0-.6-.2-1.3-.2-1.9-.5-.7-.7-.9-1.7-1.2Z"/>
  <path class="st0" d="M21.5,61.7c-4.2,1.6-14.3,3.9-11.3,11l.7.7.7-.5c-.2-6.4,9.6-12.2,12-6.7-2-.2-3.9-.5-5.3.5-.6.6-.6.6,0,1.2,1.7.5,4.4,0,6.2.7,3.1,1.3,5.6,4.4,8.6,5.3l.5-.7c-.7-1.1-1.4-2.2-2.2-3.4,5.6,1.4,11.3,12.1,12.7,18.2l-1.2-.2c-1.9-3.6-3.8-7.2-5.8-10.8l-1.2.2c.2,4.4,4.2,11,7,13.2,3.7-.5,4.2,3.6,6.5,6.5,3.3,4.2,10.2,10.5,16.8,11l1.2-.7c1.4-4.6,2.9-9.1,4.3-13.7l-.7-.5c-1.5,1-1.8,2.9-3.1,4.1-5.2-1.4-7.2-4.6-11-7-.8.3-.5.2-1,.7,3,5.5,9.4,5.4,11.8,8.9-.6,1.9-1.1,3.8-1.7,5.8-4.7,1.1-9.5-5-12.2-7.2-11.9-9.5-9.2-28-27.4-33.8v-1h1.2c13.1,4.1,19.3,15.7,30.2,22.3,3,1.8,9.2,5.5,13.9,4.3v-.7c-5.1-3.1-11.5-3.5-16.1-6.7-10.9-7.7-15.8-21.2-34.3-21.1Z"/>
  <path class="st0" d="M100.7,69.1c0,.8-.2.6.2,1.2l.5-1-.7-.2Z"/>
  <path class="st0" d="M125.4,69.6l-.5,1.2.5.5c3.6.4,14,3.7,14.9,2.9-2.1-3.2-9.9-4.4-14.9-4.6Z"/>
  <path class="st0" d="M68.3,70.3c-.4.8-.4.9-.2,1.9h1.4c0-1.5,0-1.5-1.2-1.9Z"/>
  <path class="st0" d="M115.6,73.7l-10.1,2.2c-8.1,2.5-15.7,6.4-21.1,11.8-1.8,1.8-6.5,6.2-5.5,8.9h1c9.2-13.6,23.2-21.9,44.9-19.9l.2-.2v-1c-2.4-1.4-5.2-1.7-9.4-1.7Z"/>
  <path class="st0" d="M97.6,74.6c-1.3.8-3.2.9-3.8,2.4,1.4,1.3,4.6-.3,5.5-1.7l-.5-.7h-1.2Z"/>
  <path class="st0" d="M142.7,75.1c-.2.9-.1.9.2,1.7,1.2.4,1.4.8,3.1,1l.2-.5v-.2c-.7-.8-1-1.2-2.2-1.7l-1.4-.2Z"/>
  <path class="st0" d="M11.6,76.5l-.2,1.2c.8,1,1.1,1.7,2.6,1.4v-.2c-.2-1.2-.6-1.6-1.4-2.2l-1-.2Z"/>
  <path class="st0" d="M131.4,77.3v1.4c17.3,5.1,29.8,16.4,32.9,36-.2,5.6-.3,11.2-.5,16.8-.5,2.3-1.8,4.8-1.7,7l.5.2c3.9-2.1,4.4-21.2,3.1-27.6-3.2-15.7-12.5-23.5-25-30-2.8-1.4-5.4-3.7-9.4-3.8h0Z"/>
  <path class="st0" d="M214,77.3c-3.2,3.5-8.1,3.8-12.5,6.2.2.9.2.7.7,1.2,4.8-.4,11.3-3.1,13-6.7l-.5-.7h-.7Z"/>
  <path class="st0" d="M114.1,78.2c-2.1.2-4.2.5-6.2.7-3.1,1.1-6.2,2.2-9.4,3.4v1l.2.2c3.3-.2,5.2-1.6,7.7-2.4,3.1-.4,6.2-.8,9.4-1.2,6.9-1.1,12.9,2.3,18.2,3.4l.5-1.2c-4.9-3.2-12.5-3.8-20.4-3.8Z"/>
  <path class="st0" d="M87.7,79.9c-4.6,3.1-16.3,13.4-14.6,20.9l1.4-.5c1.4-5.7,5.1-12.3,9.1-15.6,1.8-1.3,3.5-2.6,5.3-3.8l-.5-1h-.7Z"/>
  <path class="st0" d="M94.2,84.4c-4.3,2.8-8.3,5.1-11.3,9.1-1.3,1.8-2,6.4-4.1,7.4,0-1.4,0-1.8-.7-2.4-2.9,2-5.9,14.4-6.2,19.4l-1-.2v-3.4h-1.4v.5c-2,4.4-.4,20.2,2.2,22.1l.7-.5c.2-1.2,0-.8,1-1.2,2.2,7.9,7,17.4,13.7,20.9l.7-.2v-1c-2.2-2.4-4.5-4.8-6.7-7.2-5.7-8.1-9.3-21.1-6.5-34.1.8-3.7,1.7-11,4.6-12.5v1c-.7,1.6-1.3,3.4-1,5.3h1c2.4-4.3,3.1-9.9,6-13.7,2.8-3.6,7.5-5.1,10.6-8.4l-.2-1h-1.2Z"/>
  <path class="st0" d="M138.6,84.4l-.5.2c.3,2.3,2,2.7,3.4,3.8l1.4-.2v-.2l-.2-.5c-.7-1.5-2.5-2.4-4.1-3.1Z"/>
  <path class="st0" d="M156.8,86.8c-.2.8-.2.8.2,1.4,1.4,1.9,2.9,3.8,4.3,5.8,1.2,2.6,2.4,5.1,3.6,7.7h.7l.2-.2c0-5-4.8-14-9.1-14.6h0Z"/>
  <path class="st0" d="M172.9,102.2l-1.2.7c0,.2,1.5,19.8,1.7,20.2h.7l.2-.7c.7-2,.2-5.1,1-6.7,3.2,0,6.4-.2,9.6-.2l.2-1.2h-.5c-3.2-.2-6.4-.5-9.6-.7l-.2-.7c-.3-2.8-.6-5.6-1-8.4,7.1.2,14.3,3,20.4,4.6,4.8.6,9.6,1.3,14.4,1.9,2.6.9,5.1,1.8,7.7,2.6,3.2.9,13.1,2.2,15.1,4.1v.5l-.5.2c-14.4,3.1-32.7,2.8-47,5-3,.2-5.9.3-8.9.5l-.2,1,.2.5c7.6.8,15.4-1.1,22.1-2.2,14.4-2.3,28.9-1.6,42.2-3.6l.2-1c-4.5-2.9-9.4-2.8-15.6-4.6-4.8-1.6-9.6-3.2-14.4-4.8-4.9-.6-9.8-1.3-14.6-1.9-6.7-1.7-14.5-4.2-22.1-5Z"/>
  <path class="st0" d="M137.2,106.8c-7.7,3.2-14.2,2.8-15.4,12.5-.7,5.9,5.4,11,2.6,16.1-3.6,1-9.1,1.1-11.8-.7.2-4.1,2.9-6.2,2.2-10.6-2.4-13.4-14.8-19.4-31-15.6l-.2.5.2.7c2.4,0,4.8-.2,7.2-.2,8.7,0,16,1.6,19.2,7,.9,2.4,1.8,4.8,2.6,7.2.9,4.6-4.7,10.4-.7,13,3.4,3.4,12.8.9,14.9-1.4,0-5.7-2.5-8.8-3.4-13.4-1.7-8.7,6.4-11.7,12.5-13,3.8-.8,6.9.9,9.8,1.2l.5-.7c-1.6-2.2-5.9-2-9.4-2.4h0Z"/>
  <path class="st0" d="M62.3,109.7l-.2,1.2.7.2.7-.5v-.2l-.2-.7s-1,0-1,0Z"/>
  <path class="st0" d="M160.9,109.7c-.8,1.7-.1,7.5.7,9.6,1.1-.2.7,0,1.2-.7,1.1-2.4-.2-8.2-1.9-8.9Z"/>
  <path class="st0" d="M61.8,113.3c-5.6,2.3-20.3-.2-23.8,3.6l.2.7c8.2-.9,16.3-1.8,24.5-2.6l.5-1s-1.4-.7-1.4-.7Z"/>
  <path class="st0" d="M189,114.2l-.5.7.7.7c.8.5,1.6.5,2.6.2l.2-.5-.2-1c-1,0-1.9-.2-2.9-.2Z"/>
  <path class="st0" d="M29.6,116.8l-.5.7c.3.7,0,.3.5.7l.7.2c.5-.9.4-.5.5-1.4,0,0-1.2-.2-1.2-.2Z"/>
  <path class="st0" d="M59.6,117.3c-3.5.2-7,.5-10.6.7-14.6,2.8-33.8,3.7-48.2,5l-.2.5c.7,1.1,1.2,1.1,2.6,1.4,0,1.3-.2,1.3.2,2.2.8,0,1.6-.2,2.4-.2-.2-.7-.3-1.4-.5-2.2,13.6-3.3,30.7-2.6,44.6-5,4.1-.7,9.9.4,13.2-1.2l-.5-1.2h-3.1Z"/>
  <path class="st0" d="M79.8,117.8l-.5.7.7.7h.2l.5-.2-.2-1.2s-.7,0-.7,0Z"/>
  <path class="st0" d="M85.6,118.1l-.7.5.2,1.2h.5c4.5,2.2,13.9,1.4,18.5,0l.2-.7-.2-.7c-5.9.3-12.9.9-18.5-.2Z"/>
  <path class="st0" d="M146.8,118.5c-3.3,1.6-16.7.8-17.8,1.7l.7,1c5.9,1.1,12.4.5,18-1l.2-.5v-.7l-1.2-.5h0Z"/>
  <path class="st0" d="M154.4,118.8l-.7.7.5,1c1.2.1,1.3.2,2.2-.2v-.7c-.6-.2-1.3-.5-1.9-.7Z"/>
  <path class="st0" d="M168.8,119c-.4,4.2-.8,8.3-1.2,12.5-1.1,5-4.4,9.6-5,14.2l.2.2c4.8-1.1,8.4-19.8,7-26.6l-1-.2h0Z"/>
  <path class="st0" d="M64,119.5c-.8,2.1-.4,5.9-1.4,7.7h-9.4l-.2,1,.2.5c3.2.4,7.3-.3,10.1,1,.4,2.8.8,5.6,1.2,8.4l-.2.2c-7.3-.2-14.5-3-20.6-4.6-5.2-.7-10.4-1.4-15.6-2.2-4.6-1.4-12.8-6.1-17.8-4.6.2,1.1,0,.7.7,1.2,5.8,1.8,11.5,3.5,17.3,5.3,6.6,1.6,14.2.8,19.2,3.8-.2,1.3-.5,1.3,0,2.4,4.7,1.2,10.3,2.5,16.1,2.6.7-1.4,2.8-2,3.1-3.1l-1.9-19.4v-.2h-.7Z"/>
  <path class="st0" d="M161.6,122.4c-2.2,3.3-1.7,9.9-3.1,13.7-2,5.3-6,8.6-8.4,13.2l.2.7.5.2.7-.2c2.9-4.2,14.5-19.1,10.6-27.6h-.5Z"/>
  <path class="st0" d="M200.8,124.1l-.7.5.2,1.2h1.9l1-.7-.7-1h-1.7Z"/>
  <path class="st0" d="M188.5,125.5c-3.8,1.5-10.2-.1-13.7,1.7v.7c3.2,1.5,17.1-.2,21.1-1l.2-.7-.5-.7h-7.2Z"/>
  <path class="st0" d="M47.2,126.4l-1.2.5c.2,1.1,0,.7.7,1.2,1.1.6,2.3.2,2.9-.5l-.5-.7c-.6-.2-1.3-.3-1.9-.5Z"/>
  <path class="st0" d="M173.6,131.3l-1,.5.2,1.2c1.2.3,2.4.6,3.6,1l.2-.7c-.8-1.1-1.6-1.5-3.1-1.9h0Z"/>
  <path class="st0" d="M171.5,134.6l-1,.7c-1,4-4.8,10.5-4.1,14.2h.2l1-.2c.6-1.2,1.3-2.4,1.9-3.6,6.2.4,7.5,5.9,12.2,6.7l.2-.5c-3-6.1-8.9-5.2-11.8-8.9l1.7-6,1.4-.2c6.4,3.1,12.5,7.6,16.1,13.4,3.8,6.2,5.3,13.5,9.6,19,2.1,2.6,12,8.6,12.5,9.8h-1.7c-12.7-4.3-18.8-15.6-29.5-22.1-3.1-1.8-9.4-5.7-14.2-4.6.9,3.5,11.6,2.5,13.2,6.7-1.2.6-1,.9-.5,1.9h1.2l.2-1.7c2.4.6,3.2,2.1,4.8,3.4,8.7,6.8,18.5,23.2,35.8,17.5,4.1-1.4,5.8-6.5,7.9-7.4l1,1,1-.7c.6-2.9.7-5.5-.7-7.9l-1.2.2v.2c.3,2.3.8,4,.2,6.2l-.5.2-.5-.2-.2-2.2-1.2-.2-.2.2c-.3,12-13.2,8.2-19.4,4.3-9.6-6.1-10.1-14.9-15.8-24.5-2.8-4.7-7.2-8.4-11.8-11.3-2.3-1.5-4.3-3.3-7.9-3.6h0Z"/>
  <path class="st0" d="M37.6,136.3l-.5.2.2,1.2h4.1v-1l-.7-.2c-1,0-2.1-.2-3.1-.2h0Z"/>
  <path class="st0" d="M95.6,139.4c0,1.1,0,.8.5,1.7l1.2-.2v-1l-.5-.5h-1.2Z"/>
  <path class="st0" d="M137.2,141.3c-4.5,2.7-21.9,3.1-29.5,1.7-1.9-.3-3.8-1.3-6-.7v.2c.3.9,0,.5.7,1,6.5,3.4,30.8,2.2,36-1v-.7l-.5-.5h-.7Z"/>
  <path class="st0" d="M160.2,142.3c-1,1.3-1.9,2.6-2.9,3.8l.2.7h1c1.2-.9,2-2.1,2.6-3.6l-1-1h0Z"/>
  <path class="st0" d="M83.2,145.9v1.4c.8,2,12.1,13.8,13.2,9.8-2.9-2-11.2-10.8-13.2-11.3Z"/>
  <path class="st0" d="M67.1,146.4c-4.6,5.9-11.3,9.8-19,12.7-10.2,3.9-21.8,4.4-27.4,12.7-3.2,4.9-7.1,19.3,3.1,19.7,1.3-.4,2.3-.6,2.9-1.7.4-.5.3-.3.5-1.2l-.5-.2c-1.6.4-2.5,1.7-4.3,1-4.9-2.3-3.7-9.7-.5-12.7,6.3-5.9,15.7-9.8,27.6-7.9l.2,1c-4.9-.2-16.2-.2-16.1,3.8h1c2.6-1,19.8-2.1,19.9-2.2l-1-1.9h2.9c8,2.3,21.3-5.4,24.7-9.1v-1.2c-2.7-2.3-7.4-9.8-10.3-10.8l-.2.2c.2,2.6,1.5,2.6,1.9,5-2.2,1.5-4.5,3-6.7,4.6-1.7.5-3.4,1-5,1.4v.7l.7.5c5.4-.4,9.3-3.1,12.2-6,2,.5,3.9,3.1,5,4.6v1c-5,3.5-10.7,6.3-18,7.4-7.7,1.2-12.8-2.8-20.4-1.4-4.2.7-8.8,1.6-12,3.4-1.8,1.1-3.7,2.2-5.5,3.4v-.7c5.3-7.8,17.6-8.3,27.1-12,5-2,9.1-4.4,13-7.4,2-1.6,4.8-3.5,5.5-6.2l-.2-.2h-1.2Z"/>
  <path class="st0" d="M75.7,146.9c-1.2,2.4,2,5.1,3.4,6.5,4.4,4.4,9.1,11.7,16.3,13,.3-.8.2-.3.2-1.2-6-3.2-12.1-8-16.1-13.2-1.3-1.7-1.9-4-3.8-5h0Z"/>
  <path class="st0" d="M114.6,148.3v1.4h.5c2.4,1.2,7.5.9,9.8,0v-1.2h-.5l-9.8-.2Z"/>
  <path class="st0" d="M154.7,148.8c-7.9,11-15,14.3-31,17.5-4.2.8-10.6,1.6-15.1.5-3.8-1.5-7.7-3-11.5-4.6-1.8-1.1-2.9-2.8-5.3-3.4l-.2.2v1.2c16.1,11.4,39.2,11.8,55.2-.7,2.4-1.9,9.6-7.2,8.9-10.8h-1Z"/>
  <path class="st0" d="M157.8,152.4c-8.1,8.7-13.4,11.5-25.4,16.6l.2,1.2h.5c5.8,1.8,24.9-12.5,25.7-17.3l-1-.5Z"/>
  <path class="st0" d="M166,154.8l-.5,1.2c1,.7,1.8,1.2,3.4,1.4l.5-.7c-.5-1.3-1.6-1.8-3.4-1.9Z"/>
  <path class="st0" d="M144.8,169.9c3.1-.3,4.1-2.2,7.2-2.6,1.6,2.7,3.2,5.4,4.8,8.2l1.2-.2c-.4-3.8-3.3-5.8-4.1-9.4l.7-1c2.1-1.5,4.2-3,6.2-4.6l.5.7c3.1,5.6,3.8,12.1,5.8,18.7,2,4.9,4,9.8,6,14.6,2,5.9,1.3,13.8,4.8,18.2h.7l.5-.7c-1.4-5.6-2.3-12.3-4.3-18.2-2-4.9-4-9.8-6-14.6-2.1-7.4-3.1-15.4-7-21.1l-1.4.2c-1.8,1.5-3.5,3-5.3,4.6l-10.3,6v1.2h0Z"/>
  <path class="st0" d="M165.2,158.6l-.5.5c.4,4,5.7,20.5,7.9,22.1l.7-.5c-.1-3.5-5.7-19.2-7.4-22.1h-.7Z"/>
  <path class="st0" d="M81.7,162.4c-6.2,4.7-11.7,7-21.4,8.9-.1,1-.3.6.5,1.2,5.5,2.4,21.2-5.8,21.6-9.8l-.7-.2Z"/>
  <path class="st0" d="M183.5,162.9l-.5.7c1.2,3.4,15.2,19,18.5,16.1-1.4-2.2-4.7-3-6.7-4.6-3.2-2.5-7.8-11.3-11.3-12.2Z"/>
  <path class="st0" d="M90.6,167.5l-.5.2v1c1.8,1.2,3.7,2.4,5.5,3.6-.4,6.2-7.5,9.5-8.2,15.4l.7.2c4.4-3.6,5.5-10.6,9.8-14.2,2.7,1.1,5.4,2.2,8.2,3.4v.7c-3.8,2.9-6.6,7.5-9.6,11.3-1.4,1.1-2.9,2.2-4.3,3.4-4.9,5.9-9.5,11.4-14.9,16.8-3,3-7,8.8-11.3,10.1v-1.2c2.2-5.8,5.6-10.8,7.9-16.1,3.3-7.5,5.8-14.1,9.1-21.8,1.6-3.8,4.9-7.3,5.5-11.8l-.2-.5-1.4.5-5.3,10.6c-3.6,8.3-5.8,16.6-10.3,24.2-3.1,5.2-8.8,15.1-9.8,21.6l1.2.2c8-7.1,17.5-13.8,24-22.3,2.7-3.5,5.7-10.3,10.6-11.3-.5.8-1,1.6-1.4,2.4l.2,1.2h1c3.3-4.3,12-10.3,13-16.1-.7-.8-1.5-3.3-2.4-3.8l-6-1.7-11-6h0Z"/>
  <path class="st0" d="M144.4,171.1l-.5.2c.5,5.5,8.4,12.7,11.3,16.6,8.6,11.4,15.8,23.7,24.5,34.8h.7l.2-.2c-.2-4.7-5.2-7.9-7.4-11-7-9.8-13.5-19.7-20.6-29-2.3-2.9-4.6-9.8-8.2-11.3Z"/>
  <path class="st0" d="M131.9,173c-3.6,1.9-8.8,2-13.2,2.9-.1,1-.3.6.5,1.2,1.6.6,3.4-.3,4.3.7,2.1,4.1,0,9-.5,13l.2.2,1.4-.5c.5-1.5,1-3,1.4-4.6-.2-3-.3-5.9-.5-8.9l.5-.5c1.5-.9,4.6-1.5,6.5-1.2,2.5,17.2-7.1,24.4-13,34.3-3.2,5.4-3.9,12.2-3.6,20.4h-1c-5.4-17.1,10.2-35.1,1-52.3h-.7l-.2.7c-.9,3.1,3.2,10.6,2.2,16.6-1.6,9.4-8.2,25.9-4.1,35.5,1.6,3.6,13,17.8,18.2,9.1l.2-.7-.7-.5c-10.9,4.7-15.6-7.4-13-18.7,3.1-12.9,13-17.7,15.8-30.5.8-3.5,2.5-13.6-.5-15.8l-1.4-.5h0Z"/>
  <path class="st0" d="M136.4,173c-.6,1.3-.4,2.8,0,4.3l1,.2.7-1.2c-.2-1-.5-2.1-.7-3.1l-1-.2h0Z"/>
  <path class="st0" d="M227.6,177.8c-6.3,8.5-12.9,4.4-22.8,4.8l-.2.5.5,1c5.3,1.8,14.1,2,19-.5,1.2-.6,6.5-4.4,3.6-5.8h0Z"/>
  <path class="st0" d="M159.2,178.3c-.4,1.4-.2,2.5,1,3.1l.7.2.2-.2c0-1.9-.4-2.8-1.9-3.1h0Z"/>
  <path class="st0" d="M137.2,183.1c-2.9,5.4-2.6,12.6-5.5,17.5-3.6,6.1-10.2,9.4-10.3,19l.5.5h.2l.7-1c1.3-2.7,1.3-5.9,2.9-8.2,4.3-6.4,14.4-16.2,12.5-27.6l-1-.2h0Z"/>
  <path class="st0" d="M122.8,193.4v1.7h.2l1-.5v-.2l-.2-1h-1Z"/>
  <path class="st0" d="M93.5,198.2h-1.4c-1.5,1.9-3.4,3.4-4.1,6.2l.7.5c1.8-1,4.5-4.4,4.8-6.7Z"/>
  <path class="st0" d="M64.4,210.2l-.7,1.2.2,1h1l1-1.4c-.6-.6-.4-.5-1.4-.7Z"/>
  <path class="st0" d="M61.6,216.4c-1.6,2.7-3.8,7.3-3.4,11l.5.2c1.9-1.3,3.7-8.2,4.1-10.8-.5-.3-.3-.3-1.2-.5Z"/>
  <path class="st0" d="M181.1,217.6c-.5,2.1,1.2,4.7,2.2,6.2.9-.2.7-.2,1.2-.7-.3-2.1-1.2-5.1-3.4-5.5Z"/>
</svg>