<?xml version="1.0" encoding="UTF-8"?>
<svg id="Calque_1" data-name="Calque 1" xmlns="http://www.w3.org/2000/svg" viewBox="0 0 241.61 107.91">
  <defs>
    <style>
      .cls-1 {
        fill: #c4883a;
        fill-rule: evenodd;
      }
    </style>
  </defs>
  <path class="cls-1" d="M86.72,21.6l.72-.24v-.96c-2.24-2.4-4.48-4.8-6.72-7.2-1.26-1.79-2.4-3.83-3.41-6.04-.65.01-1.3.03-1.95.06,2.59,6.03,6.44,11.86,11.36,14.38Z"/>
  <path class="cls-1" d="M162.32,11.04c.08.08.16.16.24.24,2.3-.53,4.31-5.12,5.63-10.51-.7.05-1.42.11-2.16.19-1.41,3.47-3.28,6.77-3.72,10.08Z"/>
  <path class="cls-1" d="M149.84,14.64c.08.24.16.48.24.72.16.08.32.16.48.24.24-.08.48-.16.72-.24,1.6-2.3,5.73-7.72,8.54-13.57-.62.1-1.25.22-1.89.34-2.08,4.85-5.77,8.08-8.09,12.51Z"/>
  <path class="cls-1" d="M170.35.64s-.07.05-.1.08c-1.01,4.04-4.76,10.52-4.08,14.16h.24c.32-.08.64-.16.96-.24.64-1.2,1.28-2.4,1.92-3.6,6.16.36,7.53,5.9,12.24,6.72.08-.16.16-.32.24-.48-2.97-6.11-8.87-5.17-11.76-8.88.56-2,1.12-4,1.68-6,.48-.08.96-.16,1.44-.24,6.35,3.08,12.53,7.58,16.08,13.44,3.76,6.21,5.3,13.54,9.6,18.96,2.05,2.58,11.99,8.65,12.48,9.84h-1.68c-12.68-4.29-18.75-15.59-29.52-22.08-3.06-1.84-9.43-5.73-14.16-4.56.95,3.49,11.62,2.47,13.2,6.72-1.16.6-.99.89-.48,1.92h1.2c.08-.56.16-1.12.24-1.68,2.44.55,3.18,2.11,4.8,3.36,8.72,6.75,18.48,23.23,35.76,17.52,4.09-1.35,5.83-6.5,7.92-7.44.32.32.64.64.96.96.32-.24.64-.48.96-.72.6-2.94.73-5.49-.72-7.92-.4.08-.8.16-1.2.24v.24c.3,2.32.8,4,.24,6.24-.16.08-.32.16-.48.24-.16-.08-.32-.16-.48-.24-.08-.72-.16-1.44-.24-2.16-.4-.08-.8-.16-1.2-.24-.08.08-.16.16-.24.24-.31,12.03-13.25,8.25-19.44,4.32-9.61-6.1-10.06-14.94-15.84-24.48-2.83-4.67-7.16-8.36-11.76-11.28-1.71-1.08-3.22-2.35-5.31-3.07-.2.01-.41.02-.61.03-.86,0-1.83.03-2.85.08Z"/>
  <path class="cls-1" d="M157.04,11.52l.24.72h.96c1.21-.92,1.98-2.12,2.64-3.6l-.96-.96c-.96,1.28-1.92,2.56-2.88,3.84Z"/>
  <path class="cls-1" d="M82.88,12.72c.85,2.04,12.06,13.83,13.2,9.84-2.95-1.99-11.23-10.82-13.2-11.28v1.44Z"/>
  <path class="cls-1" d="M70.64,13.68l-.24.24c.2,2.62,1.54,2.64,1.92,5.04-2.24,1.52-4.48,3.04-6.72,4.56-1.68.48-3.36.96-5.04,1.44v.72c.24.16.48.32.72.48,5.43-.43,9.27-3.06,12.24-6,2.01.5,3.95,3.06,5.04,4.56v.96c-4.96,3.49-10.68,6.26-18,7.44-7.65,1.23-12.75-2.75-20.4-1.44-4.15.71-8.76,1.56-12,3.36-1.84,1.12-3.68,2.24-5.52,3.36v-.72c5.34-7.84,17.58-8.27,27.12-12,5.03-1.96,9.1-4.43,12.96-7.44,1.99-1.55,4.82-3.5,5.52-6.24l-.24-.24h-1.2c-4.64,5.94-11.26,9.82-18.96,12.72-10.21,3.85-21.82,4.37-27.36,12.72-3.22,4.86-7.05,19.27,3.12,19.68,1.31-.4,2.26-.57,2.88-1.68.38-.48.31-.33.48-1.2-.16-.08-.32-.16-.48-.24-1.57.37-2.46,1.68-4.32.96-4.88-2.27-3.69-9.72-.48-12.72,6.26-5.85,15.73-9.8,27.6-7.92.08.32.16.64.24.96-4.91-.18-16.24-.16-16.08,3.84h.96c2.61-1.04,19.84-2.09,19.92-2.16-.32-.64-.64-1.28-.96-1.92h2.88c8.03,2.26,21.27-5.4,24.72-9.12v-1.2c-2.69-2.3-7.42-9.83-10.32-10.8Z"/>
  <path class="cls-1" d="M79.28,17.28c-1.3-1.68-1.86-4.03-3.84-5.04-1.22,2.37,1.97,5.07,3.36,6.48,4.39,4.43,9.1,11.67,16.32,12.96.31-.79.22-.29.24-1.2-5.96-3.19-12.06-8.02-16.08-13.2Z"/>
  <path class="cls-1" d="M114.32,13.68v1.44h.48c2.38,1.19,7.5.91,9.84,0v-1.2h-.48c-3.28-.08-6.56-.16-9.84-.24Z"/>
  <path class="cls-1" d="M154.4,14.16c-7.91,11.01-15.03,14.29-30.96,17.52-4.15.84-10.59,1.64-15.12.48-3.84-1.52-7.68-3.04-11.52-4.56-1.82-1.08-2.92-2.79-5.28-3.36l-.24.24v1.2c16.07,11.39,39.16,11.81,55.2-.72,2.38-1.86,9.58-7.24,8.88-10.8h-.96Z"/>
  <path class="cls-1" d="M132.08,34.32c.08.4.16.8.24,1.2h.48c5.79,1.75,24.93-12.47,25.68-17.28-.32-.16-.64-.32-.96-.48-8.15,8.73-13.36,11.49-25.44,16.56Z"/>
  <path class="cls-1" d="M165.68,20.16c-.16.4-.32.8-.48,1.2,1.02.68,1.83,1.17,3.36,1.44.16-.24.32-.48.48-.72-.54-1.32-1.61-1.83-3.36-1.92Z"/>
  <path class="cls-1" d="M168.56,44.4c-2.05-7.45-3.08-15.39-6.96-21.12-.48.08-.96.16-1.44.24-1.76,1.52-3.52,3.04-5.28,4.56-3.44,2-6.88,4-10.32,6v1.2c3.12-.28,4.11-2.24,7.2-2.64,1.6,2.72,3.2,5.44,4.8,8.16.4-.08.8-.16,1.2-.24-.36-3.76-3.33-5.83-4.08-9.36.24-.32.48-.64.72-.96,2.08-1.52,4.16-3.04,6.24-4.56.16.24.32.48.48.72,3.08,5.6,3.78,12.08,5.76,18.72,2,4.88,4,9.76,6,14.64,2.01,5.92,1.33,13.78,4.8,18.24h.72c.16-.24.32-.48.48-.72-1.42-5.6-2.27-12.32-4.32-18.24-2-4.88-4-9.76-6-14.64Z"/>
  <path class="cls-1" d="M164.96,24c-.16.16-.32.32-.48.48.35,4.01,5.72,20.47,7.92,22.08.24-.16.48-.32.72-.48-.14-3.51-5.72-19.18-7.44-22.08h-.72Z"/>
  <path class="cls-1" d="M60.08,36.72c-.14.96-.32.62.48,1.2,5.5,2.37,21.2-5.82,21.6-9.84-.24-.08-.48-.16-.72-.24-6.23,4.72-11.68,6.99-21.36,8.88Z"/>
  <path class="cls-1" d="M194.48,40.56c-3.22-2.49-7.77-11.27-11.28-12.24-.16.24-.32.48-.48.72,1.16,3.4,15.18,19.03,18.48,16.08-1.39-2.21-4.68-2.98-6.72-4.56Z"/>
  <path class="cls-1" d="M107.36,40.56c-2-.56-4-1.12-6-1.68-3.68-2-7.36-4-11.04-6-.16.08-.32.16-.48.24v.96c1.84,1.2,3.68,2.4,5.52,3.6-.44,6.16-7.54,9.54-8.16,15.36l.72.24c4.45-3.56,5.49-10.58,9.84-14.16,2.72,1.12,5.44,2.24,8.16,3.36v.72c-3.8,2.92-6.64,7.48-9.6,11.28-1.44,1.12-2.88,2.24-4.32,3.36-4.9,5.93-9.47,11.43-14.88,16.8-2.99,2.97-6.98,8.82-11.28,10.08v-1.2c2.19-5.79,5.64-10.82,7.92-16.08,3.26-7.51,5.83-14.14,9.12-21.84,1.62-3.78,4.95-7.34,5.52-11.76-.08-.16-.16-.32-.24-.48-.48.16-.96.32-1.44.48-1.76,3.52-3.52,7.04-5.28,10.56-3.55,8.33-5.85,16.64-10.32,24.24-3.08,5.24-8.83,15.07-9.84,21.6.4.08.8.16,1.2.24,7.97-7.1,17.5-13.82,24-22.32,2.66-3.48,5.67-10.31,10.56-11.28-.48.8-.96,1.6-1.44,2.4.08.4.16.8.24,1.2h.96c3.28-4.3,12-10.29,12.96-16.08-.74-.79-1.52-3.31-2.4-3.84Z"/>
  <path class="cls-1" d="M152.24,47.76c-2.26-2.93-4.65-9.84-8.16-11.28-.16.08-.32.16-.48.24.5,5.48,8.35,12.68,11.28,16.56,8.57,11.36,15.77,23.72,24.48,34.8h.72c.08-.08.16-.16.24-.24-.17-4.72-5.21-7.91-7.44-11.04-6.96-9.76-13.46-19.72-20.64-29.04Z"/>
  <path class="cls-1" d="M133.04,38.88c-.48-.16-.96-.32-1.44-.48-3.61,1.86-8.79,2.01-13.2,2.88-.14.96-.32.62.48,1.2,1.62.58,3.43-.32,4.32.72,2.14,4.14-.08,9.01-.48,12.96l.24.24c.48-.16.96-.32,1.44-.48.48-1.52.96-3.04,1.44-4.56-.16-2.96-.32-5.92-.48-8.88.16-.16.32-.32.48-.48,1.53-.92,4.62-1.52,6.48-1.2,2.52,17.24-7.13,24.41-12.96,34.32-3.15,5.35-3.94,12.2-3.6,20.4h-.96c-5.37-17.12,10.18-35.12.96-52.32h-.72c-.08.24-.16.48-.24.72-.92,3.07,3.18,10.65,2.16,16.56-1.61,9.36-8.24,25.85-4.08,35.52,1.56,3.64,13.03,17.84,18.24,9.12.08-.24.16-.48.24-.72-.24-.16-.48-.32-.72-.48-10.91,4.73-15.64-7.45-12.96-18.72,3.05-12.85,12.99-17.72,15.84-30.48.78-3.48,2.54-13.63-.48-15.84Z"/>
  <path class="cls-1" d="M136.16,38.4c-.63,1.27-.37,2.83,0,4.32.32.08.64.16.96.24.24-.4.48-.8.72-1.2-.24-1.04-.48-2.08-.72-3.12-.32-.08-.64-.16-.96-.24Z"/>
  <path class="cls-1" d="M227.36,43.2c-6.28,8.54-12.94,4.41-22.8,4.8l-.24.48.48.96c5.29,1.78,14.08,2.03,18.96-.48,1.23-.63,6.47-4.41,3.6-5.76Z"/>
  <path class="cls-1" d="M158.96,43.68c-.43,1.44-.17,2.51.96,3.12l.72.24.24-.24c.01-1.86-.39-2.76-1.92-3.12Z"/>
  <path class="cls-1" d="M136.88,48.48c-2.86,5.4-2.58,12.56-5.52,17.52-3.61,6.1-10.2,9.35-10.32,18.96l.48.48h.24l.72-.96c1.33-2.67,1.34-5.85,2.88-8.16,4.27-6.42,14.37-16.21,12.48-27.6l-.96-.24Z"/>
  <path class="cls-1" d="M122.48,58.8v1.68h.24l.96-.48v-.24l-.24-.96h-.96Z"/>
  <path class="cls-1" d="M93.2,63.6h-1.44c-1.48,1.95-3.45,3.43-4.08,6.24l.72.48c1.76-1.04,4.49-4.36,4.8-6.72Z"/>
  <path class="cls-1" d="M64.16,75.6l-.72,1.2.24.96h.96l.96-1.44c-.55-.58-.38-.52-1.44-.72Z"/>
  <path class="cls-1" d="M61.28,81.84c-1.61,2.68-3.83,7.31-3.36,11.04l.48.24c1.94-1.33,3.74-8.16,4.08-10.8-.51-.31-.35-.3-1.2-.48Z"/>
  <path class="cls-1" d="M180.8,83.04c-.5,2.08,1.18,4.71,2.16,6.24.88-.25.71-.2,1.2-.72-.27-2.11-1.24-5.13-3.36-5.52Z"/>
</svg>