<?xml version="1.0" encoding="UTF-8"?>
<svg id="Calque_1" data-name="Calque 1" xmlns="http://www.w3.org/2000/svg" viewBox="0 0 241.61 144.83">
  <defs>
    <style>
      .cls-1 {
        fill: #c4883a;
        fill-rule: evenodd;
      }
    </style>
  </defs>
  <path class="cls-1" d="M103.68,53.76c-.86,4.08-1.82,11.26.24,14.88,1.56.29,14.16-2.15,15.12-3.12-1.16-1.46-3.7-.56-5.28-1.2-.24-2.56-.48-5.12-.72-7.68.48-1.68.96-3.36,1.44-5.04v-.24c-.26-.59-.54-.24-1.2-.48-2.3,3.85-1.6,8.89-1.44,14.4-1.64.54-5.78,2.28-6.96.72-2.47-5.03.82-15.32,2.4-18.96,1.66-3.83,4.59-6.54,6.96-9.6,5.19-6.72,7.31-14.02,7.2-25.68.4.16.8.32,1.2.48,1.96,9.8-1.18,18.9-3.12,27.12-2.23,9.45-.48,20.39,2.4,27.12,1.66-.09,2.15-.53,3.12-1.2.91-3.22-1.01-10.43-2.64-13.2-.48.16-.96.32-1.44.48-.16-.16-.32-.32-.48-.48-3.21-17.44,12.29-29.71.24-46.08-2.35-3.2-5.18-5.88-10.56-6-1.48.72-3.2.84-4.08,2.16v1.2h.24c1.81-.43,3.24-1.98,5.76-1.44,7.22,1.55,9.58,12.59,7.2,21.12-3.52,12.61-12.75,17.21-15.6,30.72Z"/>
  <path class="cls-1" d="M58.08,15.84h.48c.16-.32.32-.64.48-.96-.48-.96-.96-1.92-1.44-2.88-.32-.08-.64-.16-.96-.24-.28.66-.4.53-.24,1.2.27,1.26.82,2.2,1.68,2.88Z"/>
  <path class="cls-1" d="M128.64,16.08h-.72v6.48h.96l.48-.48c.19-2.42.25-4.33-.72-6Z"/>
  <path class="cls-1" d="M150.24,73.68c2-4,4-8,6-12,6.23-15.39,12.7-29.29,19.68-44.16-.32-.24-.64-.48-.96-.72-3.61,3.63-5.04,10.66-7.2,15.6-1.52,2.64-3.04,5.28-4.56,7.92-3.44,8.18-6.45,15.72-10.08,24-1.29,2.95-3.95,5.44-4.32,9.12.08.16.16.32.24.48h.24c.32-.08.64-.16.96-.24Z"/>
  <path class="cls-1" d="M57.6,19.2h-.24c-.34.57-.4.63-.48,1.68.72,1.28,1.44,2.56,2.16,3.84-.48.32-.96.64-1.44.96.08.48.16.96.24,1.44h1.44c.29-1.25.24-1.57,1.2-.96,4.66,3.08,6.94,9.94,10.08,14.64,4.45,6.66,10.18,13.03,14.88,19.44,1.69,2.3,5.1,10.69,8.16,10.32-.53-4.79-5.82-9.69-8.4-12.96-5.57-7.07-10.55-14.49-15.36-22.32-1.58-2.57-4.53-4.68-5.28-7.92.48-.32.96-.64,1.44-.96-.89-2.04-3.14-6.13-5.04-7.2-.24-.08-.48-.16-.72-.24-.42,1.76.54,2.45.96,4.08-1.86-.6-2.43-2.56-3.6-3.84Z"/>
  <path class="cls-1" d="M140.88,52.8c1.44-1.12,2.88-2.24,4.32-3.36,3.2-4.16,6.4-8.32,9.6-12.48,3.73-4.5,9.17-8.13,13.2-12.48-.08-.4-.16-.8-.24-1.2h-.96c-4.72,4.48-9.44,8.96-14.16,13.44-7.65,9.65-15.6,18.5-23.76,27.6.16.72.32,1.44.48,2.16,7.03,1.92,12.07,6.83,17.52,8.16.16-.16.32-.32.48-.48v-.72c-1.92-1.44-3.84-2.88-5.76-4.32,1.3-3.12,3.95-5.06,4.56-8.64-.08-.16-.16-.32-.24-.48-2.66.62-4.87,6.06-6.24,8.16-2.72-.96-5.44-1.92-8.16-2.88-.08-.4-.16-.8-.24-1.2,3.81-2.92,6.61-7.49,9.6-11.28Z"/>
  <path class="cls-1" d="M123.12,46.56c.56-2.8,1.12-5.6,1.68-8.4,1.28-3.36,2.56-6.72,3.84-10.08-.08-.16-.16-.32-.24-.48-.32-.08-.64-.16-.96-.24-2.81,4.24-6.57,13.21-5.76,19.68h1.44v-.48Z"/>
  <path class="cls-1" d="M57.6,35.52c-.08,5.52,5.07,23.05,7.44,25.44.32-.16.64-.32.96-.48v-3.12c.16.08.32.16.48.24,1.33,4.66,6.91,26.2,10.8,26.4,3.96-5.13,11.72-6.57,15.36-11.04-.08-.32-.16-.64-.24-.96h-.96c-1.84.96-3.68,1.92-5.52,2.88-2.9-1.81-3.12-6.3-5.76-8.4h-.48c-.16.24-.32.48-.48.72,1.44,2.8,2.88,5.6,4.32,8.4-.24.48-.48.96-.72,1.44-2.32,1.03-4.65,4.9-6.96,4.08-1.84-11.76-8.68-23.42-11.76-34.08-1.77-6.13-1.62-12.92-4.56-17.76h-.72c-.16.16-.32.32-.48.48.3,2.03,1.43,3.24.96,5.28-.56.16-1.12.32-1.68.48Z"/>
  <path class="cls-1" d="M167.52,44.4c.24-.8.48-1.6.72-2.4-.08-.16-.16-.32-.24-.48h-.96c-.54.89-.83,1.21-.96,2.64.08.16.16.32.24.48h.24c.32-.08.64-.16.96-.24Z"/>
  <path class="cls-1" d="M210.96,51.12c-.32-.16-.64-.32-.96-.48-.4.32-.8.64-1.2.96.08.4.16.8.24,1.2h.96c.57-.64.69-.61.96-1.68Z"/>
  <path class="cls-1" d="M210.72,69.12c-4.73,3.15-13.32,6.12-21.6,4.56-3.51-.66-8.43-2.03-13.2-1.2-7.89,1.37-15.11,4.35-19.68,9.12.08.4.16.8.24,1.2,3.04,3.6,6.08,7.2,9.12,10.8.4-.08.8-.16,1.2-.24-.17-2.06-1.1-2.71-1.92-4.08.16-.48.32-.96.48-1.44,1.92-1.28,3.84-2.56,5.76-3.84,1.84-.56,3.68-1.12,5.52-1.68v-.24l-.72-.72c-4.74-1.37-9.57,3.99-12.48,5.76-1.87-.54-4.43-3.24-4.8-5.28.32-.4.64-.8.96-1.2,5.71-2.23,10.3-5.3,17.76-6.48,7.82-1.23,14.02,2.75,21.6,1.2,3.65-.75,7.69-1.67,10.56-3.36,1.68-1.04,3.36-2.08,5.04-3.12-1.08,4.39-6.09,5.4-9.84,7.2-10.09,4.83-33.01,8.23-35.76,19.2.08.08.16.16.24.24h1.2c2.09-2.41,4.85-6.15,8.4-6.96-.93,2.91-4.94,5.15-6.96,7.2.08.48.16.96.24,1.44h.96c3.26-4.26,8.13-8.11,13.92-9.84,3.32-.99,6.97-.9,9.6-2.4v-.24c-.08-.24-.16-.48-.24-.72-5.42.02-9.58,2.23-14.4,2.88,1.19-2.76,7.02-3.61,10.08-4.56,9.66-3.01,17.1-5.74,24-11.04h.72c.08.56.16,1.12.24,1.68,1.09-.21.71.03,1.2-.72v-1.68c-.97-.1-.94-.08-1.44-.48,2.41-4.65,7.3-18.58-2.4-19.44-.18.89-.11.93.24,1.68,9.75,4.24.18,14.12-3.84,16.8Z"/>
  <path class="cls-1" d="M162.96,53.04c-.16-.16-.32-.32-.48-.48h-.72c-1.04,2.96-2.08,5.92-3.12,8.88-2.08,4.64-4.16,9.28-6.24,13.92.24.32.48.64.72.96,3.29-2.27,9.13-18.01,9.84-23.28Z"/>
  <path class="cls-1" d="M100.08,65.52c.72-1.75,1.28-11.28.96-12h-.72c-1.59,2.81-2.36,8.82-1.44,12.48.24.08.48.16.72.24.16-.24.32-.48.48-.72Z"/>
  <path class="cls-1" d="M149.76,54.24h-.96c-.48.64-.96,1.28-1.44,1.92.08.4.16.8.24,1.2h.24c1.51-.46,2.37-1.41,1.92-3.12Z"/>
  <path class="cls-1" d="M78.24,61.44c-.54-.72-.65-.89-1.68-1.2-.16.24-.32.48-.48.72.4.88.8,1.76,1.2,2.64.4-.08.8-.16,1.2-.24-.08-.64-.16-1.28-.24-1.92Z"/>
  <path class="cls-1" d="M43.68,87.36c-.4-.08-.8-.16-1.2-.24-1.92-3.6-3.84-7.2-5.76-10.8-.4.08-.8.16-1.2.24.22,4.38,4.17,11.02,6.96,13.2,3.7-.54,4.24,3.64,6.48,6.48,3.31,4.19,10.25,10.47,16.8,11.04.4-.24.8-.48,1.2-.72,1.44-4.56,2.88-9.12,4.32-13.68-.24-.16-.48-.32-.72-.48-1.54,1.02-1.76,2.93-3.12,4.08-5.23-1.36-7.23-4.62-11.04-6.96-.82.32-.5.15-.96.72,2.96,5.53,9.39,5.4,11.76,8.88-.56,1.92-1.12,3.84-1.68,5.76-4.69,1.12-9.51-5.03-12.24-7.2-11.89-9.47-9.22-27.98-27.36-33.84v-.96h1.2c13.15,4.08,19.27,15.73,30.24,22.32,3.02,1.81,9.22,5.52,13.92,4.32v-.72c-5.05-3.07-11.51-3.51-16.08-6.72-10.88-7.65-15.82-21.17-34.32-21.12-4.23,1.56-14.29,3.9-11.28,11.04l.72.72c.24-.16.48-.32.72-.48-.2-6.42,9.56-12.22,12-6.72-1.98-.17-3.94-.46-5.28.48-.59.64-.57.56,0,1.2,1.67.49,4.45-.01,6.24.72,3.12,1.27,5.57,4.43,8.64,5.28.16-.24.32-.48.48-.72-.72-1.12-1.44-2.24-2.16-3.36,5.59,1.41,11.31,12.13,12.72,18.24Z"/>
  <path class="cls-1" d="M100.08,68.4c-.05.8-.22.55.24,1.2.16-.32.32-.64.48-.96-.24-.08-.48-.16-.72-.24Z"/>
  <path class="cls-1" d="M139.68,73.44c-2.11-3.15-9.93-4.43-14.88-4.56-.16.4-.32.8-.48,1.2l.48.48c3.58.37,13.96,3.68,14.88,2.88Z"/>
  <path class="cls-1" d="M67.68,69.6c-.38.82-.4.88-.24,1.92h1.44c-.05-1.53-.07-1.49-1.2-1.92Z"/>
  <path class="cls-1" d="M124.08,75.84l.24-.24v-.96c-2.41-1.45-5.23-1.74-9.36-1.68-3.36.72-6.72,1.44-10.08,2.16-8.11,2.5-15.74,6.45-21.12,11.76-1.78,1.75-6.53,6.25-5.52,8.88h.96c9.24-13.56,23.18-21.88,44.88-19.92Z"/>
  <path class="cls-1" d="M98.64,74.64c-.16-.24-.32-.48-.48-.72h-1.2c-1.32.76-3.2.91-3.84,2.4,1.4,1.31,4.6-.29,5.52-1.68Z"/>
  <path class="cls-1" d="M145.68,76.56v-.24c-.73-.78-1.01-1.25-2.16-1.68-.48-.08-.96-.16-1.44-.24-.18.89-.11.93.24,1.68,1.22.43,1.44.84,3.12.96.08-.16.16-.32.24-.48Z"/>
  <path class="cls-1" d="M11.04,75.84c-.08.4-.16.8-.24,1.2.84.97,1.15,1.73,2.64,1.44v-.24c-.24-1.2-.57-1.63-1.44-2.16-.32-.08-.64-.16-.96-.24Z"/>
  <path class="cls-1" d="M161.52,137.76c.16.08.32.16.48.24.75-.4,1.38-1.45,1.89-2.92-.68.08-1.37.17-2.07.27-.22.83-.36,1.64-.3,2.4Z"/>
  <path class="cls-1" d="M165.12,110.4c-3.18-15.68-12.5-23.52-24.96-30-2.78-1.45-5.38-3.68-9.36-3.84v1.44c17.29,5.08,29.75,16.45,32.88,36-.16,5.6-.32,11.2-.48,16.8-.32,1.49-.99,3.06-1.38,4.56.7-.1,1.39-.19,2.07-.27,2.13-6.09,2.28-19.5,1.23-24.68Z"/>
  <path class="cls-1" d="M214.56,77.28c-.16-.24-.32-.48-.48-.72h-.72c-3.23,3.49-8.12,3.75-12.48,6.24.25.88.2.71.72,1.2,4.77-.45,11.27-3.05,12.96-6.72Z"/>
  <path class="cls-1" d="M115.2,79.2c6.88-1.05,12.92,2.33,18.24,3.36.16-.4.32-.8.48-1.2-4.89-3.17-12.47-3.85-20.4-3.84-2.08.24-4.16.48-6.24.72-3.12,1.12-6.24,2.24-9.36,3.36v.96c.08.08.16.16.24.24,3.29-.15,5.16-1.63,7.68-2.4,3.12-.4,6.24-.8,9.36-1.2Z"/>
  <path class="cls-1" d="M83.04,84c1.76-1.28,3.52-2.56,5.28-3.84-.16-.32-.32-.64-.48-.96h-.72c-4.57,3.13-16.31,13.37-14.64,20.88.48-.16.96-.32,1.44-.48,1.45-5.7,5.06-12.35,9.12-15.6Z"/>
  <path class="cls-1" d="M73.92,113.04c.81-3.69,1.69-10.97,4.56-12.48v.96c-.65,1.61-1.27,3.42-.96,5.28h.96c2.42-4.35,3.09-9.93,6-13.68,2.81-3.62,7.54-5.09,10.56-8.4-.08-.32-.16-.64-.24-.96h-1.2c-4.26,2.77-8.35,5.09-11.28,9.12-1.35,1.85-2.02,6.39-4.08,7.44.02-1.42-.04-1.75-.72-2.4-2.9,2.01-5.89,14.37-6.24,19.44-.32-.08-.64-.16-.96-.24v-3.36h-1.44v.48c-2.01,4.42-.4,20.2,2.16,22.08.24-.16.48-.32.72-.48.25-1.19-.08-.8.96-1.2.6,2.09,1.38,4.31,2.32,6.5.65-.03,1.3-.05,1.95-.06-3.56-7.8-5.31-17.89-3.07-28.04Z"/>
  <path class="cls-1" d="M140.88,87.84c.48-.08.96-.16,1.44-.24v-.24c-.08-.16-.16-.32-.24-.48-.74-1.47-2.54-2.45-4.08-3.12-.16.08-.32.16-.48.24.3,2.27,2.02,2.67,3.36,3.84Z"/>
  <path class="cls-1" d="M164.4,101.04h.72c.08-.08.16-.16.24-.24-.06-4.98-4.82-13.96-9.12-14.64-.18.84-.23.81.24,1.44,1.44,1.92,2.88,3.84,4.32,5.76,1.2,2.56,2.4,5.12,3.6,7.68Z"/>
  <path class="cls-1" d="M230.4,117.6c-14.39,3.13-32.74,2.76-47.04,5.04-2.96.16-5.92.32-8.88.48-.08.32-.16.64-.24.96.08.16.16.32.24.48,7.56.82,15.4-1.08,22.08-2.16,14.44-2.33,28.86-1.6,42.24-3.6.08-.32.16-.64.24-.96-4.54-2.87-9.39-2.84-15.6-4.56-4.8-1.6-9.6-3.2-14.4-4.8-4.88-.64-9.76-1.28-14.64-1.92-6.66-1.68-14.5-4.23-22.08-5.04-.4.24-.8.48-1.2.72-.04.25,1.48,19.78,1.68,20.16h.72c.08-.24.16-.48.24-.72.73-1.97.18-5.09.96-6.72,3.2-.08,6.4-.16,9.6-.24.08-.4.16-.8.24-1.2h-.48c-3.2-.24-6.4-.48-9.6-.72-.08-.24-.16-.48-.24-.72-.32-2.8-.64-5.6-.96-8.4,7.11.25,14.3,3.01,20.4,4.56,4.8.64,9.6,1.28,14.4,1.92,2.56.88,5.12,1.76,7.68,2.64,3.2.91,13.08,2.25,15.12,4.08v.48c-.16.08-.32.16-.48.24Z"/>
  <path class="cls-1" d="M114.24,123.36c-2.44-13.41-14.79-19.43-30.96-15.6-.08.16-.16.32-.24.48.08.24.16.48.24.72,2.4-.08,4.8-.16,7.2-.24,8.7-.01,15.96,1.58,19.2,6.96.88,2.4,1.76,4.8,2.64,7.2.89,4.59-4.69,10.37-.72,12.96,3.41,3.35,12.75.95,14.88-1.44-.1-5.7-2.46-8.75-3.36-13.44-1.67-8.71,6.41-11.74,12.48-12.96,3.78-.76,6.87.91,9.84,1.2.16-.24.32-.48.48-.72-1.64-2.25-5.88-2.02-9.36-2.4-7.72,3.18-14.21,2.81-15.36,12.48-.69,5.86,5.44,11.03,2.64,16.08-3.56.97-9.12,1.14-11.76-.72.18-4.05,2.94-6.25,2.16-10.56Z"/>
  <path class="cls-1" d="M62.88,109.68c-.08-.24-.16-.48-.24-.72h-.96c-.08.4-.16.8-.24,1.2l.72.24c.24-.16.48-.32.72-.48v-.24Z"/>
  <path class="cls-1" d="M162.24,117.84c1.12-2.42-.21-8.18-1.92-8.88-.79,1.7-.1,7.47.72,9.6,1.09-.21.71.03,1.2-.72Z"/>
  <path class="cls-1" d="M62.64,113.28c-.48-.24-.96-.48-1.44-.72-5.58,2.31-20.27-.22-23.76,3.6.08.24.16.48.24.72,8.16-.88,16.32-1.76,24.48-2.64.16-.32.32-.64.48-.96Z"/>
  <path class="cls-1" d="M191.28,115.2c.08-.16.16-.32.24-.48-.08-.32-.16-.64-.24-.96-.96-.08-1.92-.16-2.88-.24-.16.24-.32.48-.48.72l.72.72c.83.49,1.58.46,2.64.24Z"/>
  <path class="cls-1" d="M29.04,117.6c.24.08.48.16.72.24.48-.86.41-.47.48-1.44-.4-.08-.8-.16-1.2-.24-.16.24-.32.48-.48.72.3.73,0,.29.48.72Z"/>
  <path class="cls-1" d="M62.64,117.84c-.16-.4-.32-.8-.48-1.2h-3.12c-3.52.24-7.04.48-10.56.72-14.59,2.84-33.85,3.66-48.24,5.04-.08.16-.16.32-.24.48.67,1.06,1.21,1.14,2.64,1.44-.08,1.28-.16,1.27.24,2.16.8-.08,1.6-.16,2.4-.24-.16-.72-.32-1.44-.48-2.16,13.57-3.28,30.73-2.55,44.64-5.04,4.06-.73,9.9.4,13.2-1.2Z"/>
  <path class="cls-1" d="M79.68,118.56c.16-.08.32-.16.48-.24-.08-.4-.16-.8-.24-1.2h-.72c-.16.24-.32.48-.48.72l.72.72h.24Z"/>
  <path class="cls-1" d="M103.44,119.04c.08-.24.16-.48.24-.72-.08-.24-.16-.48-.24-.72-5.88.27-12.89.93-18.48-.24-.24.16-.48.32-.72.48.08.4.16.8.24,1.2h.48c4.51,2.2,13.93,1.36,18.48,0Z"/>
  <path class="cls-1" d="M147.12,119.52c.08-.16.16-.32.24-.48v-.72c-.4-.16-.8-.32-1.2-.48-3.31,1.64-16.74.75-17.76,1.68.24.32.48.64.72.96,5.94,1.13,12.43.52,18-.96Z"/>
  <path class="cls-1" d="M155.76,119.52v-.72c-.64-.24-1.28-.48-1.92-.72l-.72.72c.16.32.32.64.48.96,1.17.14,1.29.17,2.16-.24Z"/>
  <path class="cls-1" d="M169.2,118.56c-.32-.08-.64-.16-.96-.24-.4,4.16-.8,8.32-1.2,12.48-.3,1.39-.78,2.75-1.32,4.08.74-.07,1.46-.14,2.16-.19,1.43-5.82,2.05-12.57,1.33-16.13Z"/>
  <path class="cls-1" d="M42.96,132.96c-5.2-.72-10.4-1.44-15.6-2.16-4.57-1.36-12.79-6.1-17.76-4.56.21,1.09-.03.71.72,1.2,5.76,1.76,11.52,3.52,17.28,5.28,6.58,1.57,14.25.84,19.2,3.84-.25,1.33-.45,1.34,0,2.4,4.72,1.18,10.27,2.46,16.08,2.64.71-1.37,2.78-2,3.12-3.12l-1.92-19.44v-.24h-.72c-.78,2.12-.39,5.89-1.44,7.68h-9.36c-.08.32-.16.64-.24.96.08.16.16.32.24.48,3.2.35,7.29-.34,10.08.96.4,2.8.8,5.6,1.2,8.4-.08.08-.16.16-.24.24-7.31-.18-14.52-3.01-20.64-4.56Z"/>
  <path class="cls-1" d="M161.52,121.68h-.48c-2.21,3.28-1.69,9.92-3.12,13.68-.09.24-.21.46-.31.69.63-.12,1.26-.23,1.89-.34,2.37-4.92,3.81-10.13,2.02-14.03Z"/>
  <path class="cls-1" d="M201.6,125.04l.96-.72c-.24-.32-.48-.64-.72-.96h-1.68c-.24.16-.48.32-.72.48.08.4.16.8.24,1.2h1.92Z"/>
  <path class="cls-1" d="M195.6,125.52c-.16-.24-.32-.48-.48-.72h-7.2c-3.78,1.54-10.2-.11-13.68,1.68v.72c3.19,1.49,17.13-.18,21.12-.96.08-.24.16-.48.24-.72Z"/>
  <path class="cls-1" d="M48.96,126.96c-.16-.24-.32-.48-.48-.72-.64-.16-1.28-.32-1.92-.48-.4.16-.8.32-1.2.48.21,1.09-.03.71.72,1.2,1.11.56,2.27.18,2.88-.48Z"/>
  <path class="cls-1" d="M176.16,132.48c-.81-1.08-1.57-1.54-3.12-1.92-.32.16-.64.32-.96.48.08.4.16.8.24,1.2,1.2.32,2.4.64,3.6.96.08-.24.16-.48.24-.72Z"/>
  <path class="cls-1" d="M40.8,137.04v-.96l-.72-.24c-1.04-.08-2.08-.16-3.12-.24-.16.08-.32.16-.48.24.08.4.16.8.24,1.2h4.08Z"/>
  <path class="cls-1" d="M96.72,139.2c-.16-.16-.32-.32-.48-.48h-1.2c0,1.09-.05.79.48,1.68.4-.08.8-.16,1.2-.24v-.96Z"/>
  <path class="cls-1" d="M101.65,142.73s.06.04.11.07c.29.15.62.29.98.42-.29-.24-.58-.47-.86-.73-.07.07-.15.16-.22.25Z"/>
  <path class="cls-1" d="M137.76,141.84v-.72c-.16-.16-.32-.32-.48-.48h-.72c-4.49,2.71-21.9,3.07-29.52,1.68-1.86-.34-3.82-1.26-6-.72v.24c.3.86.05.55.61.89.07-.08.15-.17.22-.25.28.26.57.5.86.73,7.67,2.86,30.07,1.61,35.02-1.38Z"/>
</svg>